# Blender v2.69 (sub 0) OBJ File: 'block4.blend'
# www.blender.org
mtllib block4.mtl
v 7.788064 -7.788065 7.788064
v 7.788064 -7.788065 -7.788064
v -7.788066 -7.788064 -7.788063
v -7.788062 -7.788064 7.788067
v 7.788069 7.788064 7.788060
v 7.788060 7.788064 -7.788069
v -7.788067 7.788065 -7.788062
v -7.788064 7.788065 7.788064
v 7.788060 7.788064 -7.788069
v 7.788069 7.788064 7.788060
v 7.788064 -7.788065 -7.788064
v 7.788064 -7.788065 7.788064
v -4.160931 -7.788065 7.785148
v -7.903638 -7.788065 4.391493
v -11.306224 -7.788064 8.144050
v -7.563513 -7.788063 11.537704
v -4.160932 7.788063 7.785146
v -7.903640 7.788063 4.391494
v -11.306222 7.788065 8.144051
v -7.563514 7.788065 11.537704
v -7.903640 7.788063 4.391494
v -4.160932 7.788063 7.785146
v -7.903638 -7.788065 4.391493
v -4.160931 -7.788065 7.785148
v 11.526175 -7.788065 7.785148
v 7.783467 -7.788064 4.391493
v 4.380882 -7.788064 8.144050
v 8.123591 -7.788063 11.537704
v 11.526175 7.788063 7.785146
v 7.783465 7.788064 4.391494
v 4.380883 7.788065 8.144051
v 8.123591 7.788064 11.537704
v 7.783465 7.788064 4.391494
v 11.526175 7.788063 7.785146
v 7.783467 -7.788064 4.391493
v 11.526175 -7.788065 7.785148
v 11.526175 -7.788065 -7.938957
v 7.783467 -7.788064 -11.332612
v 4.380882 -7.788064 -7.580055
v 8.123591 -7.788063 -4.186400
v 11.526175 7.788063 -7.938959
v 7.783465 7.788064 -11.332611
v 4.380883 7.788065 -7.580054
v 8.123591 7.788065 -4.186400
v 7.783465 7.788064 -11.332611
v 11.526175 7.788063 -7.938959
v 7.783467 -7.788064 -11.332612
v 11.526175 -7.788065 -7.938957
v -4.419258 -7.788065 -7.938957
v -8.161966 -7.788064 -11.332612
v -11.564551 -7.788064 -7.580055
v -7.821841 -7.788063 -4.186400
v -4.419259 7.788063 -7.938959
v -8.161967 7.788064 -11.332611
v -11.564549 7.788065 -7.580054
v -7.821842 7.788064 -4.186400
v -8.161967 7.788064 -11.332611
v -4.419259 7.788063 -7.938959
v -8.161966 -7.788064 -11.332612
v -4.419258 -7.788065 -7.938957
v 6.988318 -2.314905 -2.750579
v 6.988318 -2.314905 -0.849857
v 6.988318 5.687113 -2.750579
v 6.988319 5.687113 -0.849857
v 6.865004 -5.768255 -0.276772
v 6.865004 -5.768255 1.623950
v 6.865004 2.233763 -0.276772
v 6.865005 2.233763 1.623950
v 7.788062 6.686977 -2.975669
v 7.788066 6.686977 2.975663
v 7.788064 -6.686978 -2.975668
v 7.788064 -6.686978 2.975665
v 7.788062 0.527650 -2.975669
v 7.788066 0.527650 2.975663
v 7.788064 -0.527652 -2.975668
v 7.788064 -0.527652 2.975665
v 8.773973 4.447711 -1.979210
v 8.773976 4.447711 1.979202
v 8.773975 -4.447713 -1.979209
v 8.773975 -4.447713 1.979203
v 8.773974 0.350956 -1.979210
v 8.773976 0.350956 1.979202
v 8.773975 -0.350957 -1.979209
v 8.773975 -0.350957 1.979203
v 2.897955 -6.614706 7.788064
v -2.897953 -6.614705 7.788065
v 2.897957 6.614704 7.788063
v -2.897953 6.614706 7.788064
v 2.897955 -0.502770 7.788064
v -2.897953 -0.502770 7.788065
v 2.897957 0.502770 7.788063
v -2.897952 0.502770 7.788064
v 2.001461 -4.568418 9.132192
v -2.001458 -4.568417 9.132193
v 2.001462 4.568417 9.132191
v -2.001457 4.568418 9.132192
v 2.001461 -0.347236 9.132192
v -2.001458 -0.347236 9.132193
v 2.001462 0.347236 9.132191
v -2.001457 0.347236 9.132192
v -7.788064 -6.679670 -3.044366
v -7.788064 -6.679670 3.044369
v -7.788065 6.679671 -3.044365
v -7.788064 6.679671 3.044369
v -7.788064 -0.663483 -3.044366
v -7.788064 -0.663483 3.044369
v -7.788064 0.663484 -3.044365
v -7.788064 0.663484 3.044369
v -9.444514 -4.700116 -2.142152
v -9.444513 -4.700116 2.142156
v -9.444515 4.700117 -2.142151
v -9.444515 4.700117 2.142155
v -9.444515 -0.466856 -2.142152
v -9.444514 -0.466856 2.142156
v -9.444515 0.466857 -2.142151
v -9.444514 0.466857 2.142155
v 3.289751 -6.366818 -7.788064
v -3.289754 -6.366817 -7.788064
v 3.289750 6.366817 -7.788066
v -3.289755 6.366819 -7.788063
v 3.289751 -0.590229 -7.788064
v -3.289754 -0.590229 -7.788064
v 3.289750 0.590229 -7.788066
v -3.289755 0.590229 -7.788063
v 2.035725 -3.939843 -9.555782
v -2.035730 -3.939842 -9.555781
v 2.035724 3.939842 -9.555783
v -2.035731 3.939843 -9.555781
v 2.035725 -0.365239 -9.555782
v -2.035730 -0.365239 -9.555781
v 2.035724 0.365239 -9.555783
v -2.035731 0.365239 -9.555781
v -10.720498 4.274528 11.122997
v -10.720498 4.274528 8.470138
v -8.067639 4.274529 8.470138
v -8.067639 4.274529 11.122997
v -10.720497 6.927388 11.122997
v -10.720497 6.927388 8.470138
v -8.067638 6.927387 8.470138
v -8.067638 6.927387 11.122997
v -10.720498 0.410533 11.122997
v -10.720498 0.410533 8.470138
v -8.067639 0.410534 8.470138
v -8.067639 0.410534 11.122997
v -10.720498 3.063393 11.122997
v -10.720498 3.063393 8.470138
v -8.067639 3.063393 8.470138
v -8.067639 3.063393 11.122997
v -10.720498 -3.397867 11.122997
v -10.720498 -3.397867 8.470138
v -8.067639 -3.397866 8.470138
v -8.067639 -3.397866 11.122997
v -10.720498 -0.745007 11.122997
v -10.720498 -0.745007 8.470138
v -8.067639 -0.745007 8.470138
v -8.067639 -0.745008 11.122997
v -10.720499 -7.219827 11.122997
v -10.720499 -7.219827 8.470138
v -8.067640 -7.219826 8.470138
v -8.067640 -7.219826 11.122997
v -10.720498 -4.566967 11.122997
v -10.720498 -4.566967 8.470138
v -8.067639 -4.566967 8.470138
v -8.067639 -4.566967 11.122997
v -11.082126 4.274528 -7.969051
v -11.082126 4.274528 -10.621911
v -8.429267 4.274529 -10.621911
v -8.429267 4.274529 -7.969051
v -11.082125 6.927388 -7.969051
v -11.082125 6.927388 -10.621911
v -8.429266 6.927388 -10.621911
v -8.429266 6.927388 -7.969051
v -11.082126 0.410533 -7.969051
v -11.082126 0.410533 -10.621911
v -8.429267 0.410534 -10.621911
v -8.429267 0.410534 -7.969051
v -11.082126 3.063393 -7.969051
v -11.082126 3.063393 -10.621911
v -8.429267 3.063392 -10.621911
v -8.429267 3.063392 -7.969051
v -11.082126 -3.397867 -7.969051
v -11.082126 -3.397867 -10.621911
v -8.429267 -3.397867 -10.621911
v -8.429267 -3.397867 -7.969051
v -11.082126 -0.745007 -7.969051
v -11.082126 -0.745007 -10.621911
v -8.429267 -0.745007 -10.621911
v -8.429267 -0.745008 -7.969051
v -11.082127 -7.219827 -7.969051
v -11.082127 -7.219827 -10.621911
v -8.429268 -7.219826 -10.621911
v -8.429268 -7.219826 -7.969051
v -11.082126 -4.566967 -7.969051
v -11.082126 -4.566967 -10.621911
v -8.429267 -4.566967 -10.621911
v -8.429267 -4.566967 -7.969051
v 8.176905 4.274529 -8.174783
v 8.176905 4.274529 -10.827642
v 10.829763 4.274529 -10.827642
v 10.829763 4.274529 -8.174783
v 8.176906 6.927388 -8.174783
v 8.176906 6.927388 -10.827642
v 10.829764 6.927388 -10.827642
v 10.829764 6.927388 -8.174783
v 8.176905 0.410533 -8.174783
v 8.176905 0.410533 -10.827642
v 10.829763 0.410534 -10.827642
v 10.829763 0.410534 -8.174783
v 8.176905 3.063393 -8.174783
v 8.176905 3.063393 -10.827642
v 10.829763 3.063392 -10.827642
v 10.829763 3.063392 -8.174783
v 8.176905 -3.397867 -8.174783
v 8.176905 -3.397867 -10.827642
v 10.829763 -3.397867 -10.827642
v 10.829763 -3.397867 -8.174783
v 8.176905 -0.745007 -8.174783
v 8.176905 -0.745007 -10.827642
v 10.829763 -0.745008 -10.827642
v 10.829763 -0.745008 -8.174783
v 8.176904 -7.219826 -8.174783
v 8.176904 -7.219826 -10.827642
v 10.829762 -7.219826 -10.827642
v 10.829762 -7.219826 -8.174783
v 8.176905 -4.566967 -8.174783
v 8.176905 -4.566967 -10.827642
v 10.829763 -4.566967 -10.827642
v 10.829763 -4.566967 -8.174783
v 8.398202 4.274528 10.924529
v 8.398202 4.274528 8.271669
v 11.051062 4.274529 8.271669
v 11.051062 4.274529 10.924529
v 8.398203 6.927388 10.924529
v 8.398203 6.927388 8.271669
v 11.051063 6.927388 8.271669
v 11.051063 6.927388 10.924529
v 8.398202 0.410533 10.924529
v 8.398202 0.410533 8.271669
v 11.051062 0.410534 8.271669
v 11.051062 0.410534 10.924529
v 8.398202 3.063393 10.924529
v 8.398202 3.063393 8.271669
v 11.051062 3.063393 8.271669
v 11.051062 3.063393 10.924529
v 8.398202 -3.397867 10.924529
v 8.398202 -3.397867 8.271669
v 11.051062 -3.397866 8.271669
v 11.051062 -3.397866 10.924529
v 8.398202 -0.745007 10.924529
v 8.398202 -0.745007 8.271669
v 11.051062 -0.745007 8.271669
v 11.051062 -0.745008 10.924529
v 8.398201 -7.219827 10.924529
v 8.398201 -7.219827 8.271669
v 11.051061 -7.219826 8.271669
v 11.051061 -7.219826 10.924529
v 8.398202 -4.566967 10.924529
v 8.398202 -4.566967 8.271669
v 11.051062 -4.566967 8.271669
v 11.051062 -4.566967 10.924529
vt 0.000000 0.000000
vt 0.000000 1.000000
vt 1.000000 0.000000
vt 1.000000 1.000000
vn -0.000000 -1.000000 -0.000000
vn 0.000000 1.000000 0.000000
vn -0.000001 -0.000001 -1.000000
vn -1.000000 -0.000001 0.000000
vn 0.000000 0.000001 1.000000
vn 0.000000 0.000000 1.000000
vn 1.000000 0.000000 0.000000
vn -0.740807 0.000000 -0.671718
vn -0.671717 0.000000 0.740808
vn 0.740808 0.000000 0.671717
vn 0.671718 0.000000 -0.740807
vn -0.671718 0.000000 0.740807
vn 0.740807 0.000000 0.671717
vn 0.740807 0.000000 0.671718
vn -1.000000 0.000000 -0.000000
vn 0.710860 0.000000 0.703333
vn 1.000000 -0.000000 -0.000001
vn 1.000000 -0.000001 -0.000001
vn 1.000000 -0.000001 -0.000000
vn 0.533880 0.000000 0.845560
vn -0.697781 0.000000 0.716311
vn 0.710859 0.000000 -0.703335
vn 0.710860 0.000000 0.703334
vn -0.176409 0.984317 0.000000
vn -0.176409 -0.984317 0.000000
vn 0.915220 -0.402955 0.000000
vn 0.915220 0.402955 -0.000001
vn -0.831933 0.000000 0.554876
vn 0.979297 0.000000 0.202430
vn 0.717540 0.000000 0.696517
vn 0.831933 0.000000 0.554876
vn 0.831934 0.000000 0.554875
vn -0.000000 -0.993372 -0.114947
vn -0.000000 0.993372 -0.114947
vn 0.000000 0.549014 0.835813
vn -0.000000 -0.549014 0.835813
vn -0.478319 0.000000 0.878186
vn -1.000000 0.000001 0.000000
vn 0.936017 0.000000 -0.351954
vn -0.478319 0.000000 -0.878186
vn 0.117876 -0.993028 -0.000000
vn 0.117876 0.993028 -0.000000
vn -0.766920 0.641743 0.000000
vn -0.766920 -0.641743 0.000000
vn -0.815613 0.000000 -0.578598
vn -0.000000 0.000000 -1.000000
vn -0.000001 -0.000000 -1.000000
vn 0.000000 -0.000002 -1.000000
vn 0.810736 0.000000 0.585411
vn -0.678355 0.000000 0.734734
vn 0.815612 0.000000 -0.578599
vn 0.000001 -0.000000 -1.000000
vn 0.000000 -0.991997 0.126259
vn 0.000000 0.991997 0.126259
vn 0.000000 0.588747 -0.808317
vn -0.000000 -0.588748 -0.808317
vn -0.740808 0.000000 -0.671717
vn -0.740807 0.000000 -0.671717
vn 0.671717 0.000000 -0.740808
vn -1.000000 -0.000000 0.000001
vn 1.000000 0.000001 -0.000001
vn -0.413840 0.000000 -0.910349
vn 0.697781 0.000000 -0.716311
vn 0.710859 0.000000 -0.703334
vn -0.176408 -0.984317 0.000000
vn 0.915219 -0.402956 0.000000
vn 0.915219 0.402956 -0.000001
vn -0.924139 0.000000 -0.382057
vn -0.249407 -0.000000 -0.968399
vn 0.000001 -0.549014 0.835814
vn -1.000000 -0.000003 0.000000
vn -0.918760 0.000000 0.394817
vn 0.000000 -0.000001 1.000000
vn -0.478318 0.000000 0.878187
vn -0.766919 0.641743 0.000000
vn -0.000000 0.000001 -1.000000
vn -0.810737 0.000000 -0.585411
vn 0.678355 0.000000 -0.734734
vn -0.000000 -0.588747 -0.808317
vn 0.000001 0.000000 1.000000
usemtl Cube
s off
f 1/1/1 4/2/1 2/3/1
f 5/1/2 6/2/2 8/3/2
f 7/4/3 6/2/3 120/4/3
f 8/3/4 7/4/4 104/3/4
f 5/1/5 8/3/5 88/3/5
f 5/1/6 10/2/6 6/3/6
f 6/1/6 9/2/6 2/3/6
f 1/1/6 12/2/6 5/3/6
f 2/1/6 11/2/6 1/3/6
f 12/4/7 11/2/7 72/4/7
f 13/1/1 16/2/1 14/3/1
f 17/1/2 18/2/2 20/3/2
f 14/1/8 15/2/8 18/3/8
f 15/1/9 16/2/9 19/3/9
f 17/1/10 20/2/10 13/3/10
f 17/1/6 22/2/6 18/3/6
f 18/1/6 21/2/6 14/3/6
f 13/1/6 24/2/6 17/3/6
f 14/1/6 23/2/6 13/3/6
f 24/1/11 23/2/11 22/3/11
f 25/1/1 28/2/1 26/3/1
f 29/1/2 30/2/2 32/3/2
f 26/1/8 27/2/8 30/3/8
f 27/1/12 28/2/12 31/3/12
f 29/1/13 32/2/13 25/3/13
f 29/1/6 34/2/6 30/3/6
f 30/1/6 33/2/6 26/3/6
f 25/1/6 36/2/6 29/3/6
f 26/1/6 35/2/6 25/3/6
f 36/1/11 35/2/11 34/3/11
f 37/1/1 40/2/1 38/3/1
f 41/1/2 42/2/2 44/3/2
f 38/1/8 39/2/8 42/3/8
f 39/1/12 40/2/12 43/3/12
f 41/1/13 44/2/13 37/3/13
f 41/1/6 46/2/6 42/3/6
f 42/1/6 45/2/6 38/3/6
f 37/1/6 48/2/6 41/3/6
f 38/1/6 47/2/6 37/3/6
f 48/1/11 47/2/11 46/3/11
f 49/1/1 52/2/1 50/3/1
f 53/1/2 54/2/2 56/3/2
f 50/1/8 51/2/8 54/3/8
f 51/1/12 52/2/12 55/3/12
f 53/1/14 56/2/14 49/3/14
f 53/1/6 58/2/6 54/3/6
f 54/1/6 57/2/6 50/3/6
f 49/1/6 60/2/6 53/3/6
f 50/1/6 59/2/6 49/3/6
f 60/1/11 59/2/11 58/3/11
f 61/1/15 62/2/15 63/3/15
f 65/1/15 66/2/15 67/3/15
f 70/4/16 74/4/16 82/4/16
f 10/4/17 12/2/17 70/4/17
f 11/4/7 9/2/7 71/4/7
f 9/4/18 10/2/18 69/4/18
f 76/1/19 75/2/19 74/3/19
f 70/4/20 72/2/20 74/4/20
f 71/4/21 69/2/21 73/2/21
f 73/2/22 69/2/22 81/2/22
f 80/4/7 79/2/7 84/4/7
f 77/4/17 78/2/17 81/4/17
f 71/4/22 75/4/22 83/4/22
f 76/2/23 72/2/23 84/2/23
f 75/2/24 76/1/24 83/2/24
f 74/3/25 73/4/25 82/3/25
f 72/4/26 71/2/26 80/4/26
f 69/4/27 70/2/27 77/4/27
f 90/2/28 86/2/28 98/2/28
f 8/4/6 4/2/6 88/4/6
f 1/1/6 5/3/6 85/1/6
f 4/2/5 1/1/5 85/1/5
f 91/1/5 92/2/5 89/3/5
f 88/4/29 86/2/29 92/4/29
f 85/1/30 87/3/30 89/1/30
f 85/1/31 89/1/31 97/1/31
f 95/1/6 96/3/6 99/1/6
f 94/2/6 93/1/6 98/2/6
f 88/4/28 92/4/28 100/4/28
f 91/3/32 87/3/32 99/3/32
f 92/2/33 91/1/33 100/2/33
f 89/3/34 90/4/34 97/3/34
f 87/1/35 88/3/35 95/1/35
f 86/2/36 85/1/36 94/2/36
f 102/2/37 106/2/37 114/2/37
f 4/2/15 8/4/15 102/2/15
f 7/4/15 3/2/15 103/4/15
f 3/4/38 4/2/38 101/4/38
f 105/1/15 106/2/15 107/3/15
f 102/2/39 104/4/39 106/2/39
f 103/4/6 101/2/6 105/2/6
f 105/2/40 101/2/40 113/2/40
f 112/3/15 111/4/15 116/3/15
f 109/4/15 110/2/15 113/4/15
f 103/4/40 107/4/40 115/4/40
f 108/4/37 104/4/37 116/4/37
f 107/3/41 108/4/41 115/3/41
f 106/2/42 105/1/42 114/2/42
f 104/3/43 103/4/43 112/3/43
f 101/4/44 102/2/44 109/4/44
f 118/2/45 122/2/45 130/2/45
f 3/2/46 7/4/46 118/2/46
f 6/1/47 2/3/47 119/1/47
f 2/3/46 3/4/46 117/3/46
f 121/1/48 122/2/48 123/3/48
f 118/2/49 120/4/49 124/4/49
f 119/1/50 117/3/50 121/3/50
f 121/3/51 117/3/51 129/3/51
f 128/4/47 127/2/47 132/4/47
f 125/3/52 126/4/52 129/3/52
f 119/1/51 123/1/51 131/1/51
f 124/4/45 120/4/45 132/4/45
f 123/3/53 124/4/53 131/3/53
f 122/2/54 121/1/54 130/2/54
f 120/4/55 119/2/55 128/4/55
f 117/3/56 118/4/56 125/3/56
f 4/2/1 3/4/1 2/3/1
f 6/2/2 7/4/2 8/3/2
f 6/2/47 119/2/47 120/4/47
f 7/4/4 103/4/4 104/3/4
f 87/1/5 5/1/5 88/3/5
f 10/2/6 9/4/6 6/3/6
f 9/2/6 11/4/6 2/3/6
f 12/2/6 10/4/6 5/3/6
f 11/2/6 12/4/6 1/3/6
f 11/2/7 71/2/7 72/4/7
f 16/2/1 15/4/1 14/3/1
f 18/2/2 19/4/2 20/3/2
f 15/2/57 19/4/57 18/3/57
f 16/2/12 20/4/12 19/3/12
f 20/2/14 16/4/14 13/3/14
f 22/2/6 21/4/6 18/3/6
f 21/2/6 23/4/6 14/3/6
f 24/2/6 22/4/6 17/3/6
f 23/2/6 24/4/6 13/3/6
f 23/2/11 21/4/11 22/3/11
f 28/2/1 27/4/1 26/3/1
f 30/2/2 31/4/2 32/3/2
f 27/2/58 31/4/58 30/3/58
f 28/2/12 32/4/12 31/3/12
f 32/2/14 28/4/14 25/3/14
f 34/2/6 33/4/6 30/3/6
f 33/2/6 35/4/6 26/3/6
f 36/2/6 34/4/6 29/3/6
f 35/2/6 36/4/6 25/3/6
f 35/2/11 33/4/11 34/3/11
f 40/2/1 39/4/1 38/3/1
f 42/2/2 43/4/2 44/3/2
f 39/2/58 43/4/58 42/3/58
f 40/2/12 44/4/12 43/3/12
f 44/2/14 40/4/14 37/3/14
f 46/2/6 45/4/6 42/3/6
f 45/2/6 47/4/6 38/3/6
f 48/2/6 46/4/6 41/3/6
f 47/2/6 48/4/6 37/3/6
f 47/2/59 45/4/59 46/3/59
f 52/2/1 51/4/1 50/3/1
f 54/2/2 55/4/2 56/3/2
f 51/2/58 55/4/58 54/3/58
f 52/2/12 56/4/12 55/3/12
f 56/2/14 52/4/14 49/3/14
f 58/2/6 57/4/6 54/3/6
f 57/2/6 59/4/6 50/3/6
f 60/2/6 58/4/6 53/3/6
f 59/2/6 60/4/6 49/3/6
f 59/2/59 57/4/59 58/3/59
f 62/2/60 64/4/60 63/3/60
f 66/2/60 68/4/60 67/3/60
f 78/4/16 70/4/16 82/4/16
f 12/2/7 72/2/7 70/4/7
f 9/2/7 69/2/7 71/4/7
f 10/2/61 70/2/61 69/4/61
f 75/2/61 73/4/61 74/3/61
f 72/2/62 76/2/62 74/4/62
f 75/4/63 71/4/63 73/2/63
f 69/2/64 77/2/64 81/2/64
f 79/2/7 83/2/7 84/4/7
f 78/2/7 82/2/7 81/4/7
f 79/4/64 71/4/64 83/4/64
f 72/2/16 80/2/16 84/2/16
f 76/1/24 84/1/24 83/2/24
f 73/4/65 81/4/65 82/3/65
f 71/2/66 79/2/66 80/4/66
f 70/2/67 78/2/67 77/4/67
f 86/2/28 94/2/28 98/2/28
f 4/2/6 86/2/6 88/4/6
f 5/3/6 87/3/6 85/1/6
f 86/2/5 4/2/5 85/1/5
f 92/2/5 90/4/5 89/3/5
f 86/2/68 90/2/68 92/4/68
f 87/3/69 91/3/69 89/1/69
f 93/1/31 85/1/31 97/1/31
f 96/3/6 100/3/6 99/1/6
f 93/1/6 97/1/6 98/2/6
f 96/4/28 88/4/28 100/4/28
f 87/3/31 95/3/31 99/3/31
f 91/1/33 99/1/33 100/2/33
f 90/4/34 98/4/34 97/3/34
f 88/3/35 96/3/35 95/1/35
f 85/1/70 93/1/70 94/2/70
f 110/2/37 102/2/37 114/2/37
f 8/4/15 104/4/15 102/2/15
f 3/2/15 101/2/15 103/4/15
f 4/2/71 102/2/71 101/4/71
f 106/2/15 108/4/15 107/3/15
f 104/4/72 108/4/72 106/2/72
f 107/4/73 103/4/73 105/2/73
f 101/2/40 109/2/40 113/2/40
f 111/4/15 115/4/15 116/3/15
f 110/2/15 114/2/15 113/4/15
f 111/4/40 103/4/40 115/4/40
f 104/4/74 112/4/74 116/4/74
f 108/4/41 116/4/41 115/3/41
f 105/1/42 113/1/42 114/2/42
f 103/4/75 111/4/75 112/3/75
f 102/2/44 110/2/44 109/4/44
f 126/2/45 118/2/45 130/2/45
f 7/4/46 120/4/46 118/2/46
f 2/3/46 117/3/46 119/1/46
f 3/4/46 118/4/46 117/3/46
f 122/2/76 124/4/76 123/3/76
f 122/2/77 118/2/77 124/4/77
f 123/1/78 119/1/78 121/3/78
f 117/3/51 125/3/51 129/3/51
f 127/2/46 131/2/46 132/4/46
f 126/4/47 130/4/47 129/3/47
f 127/1/51 119/1/51 131/1/51
f 120/4/45 128/4/45 132/4/45
f 124/4/53 132/4/53 131/3/53
f 121/1/54 129/1/54 130/2/54
f 119/2/55 127/2/55 128/4/55
f 118/4/79 126/4/79 125/3/79
usemtl Cube_NONE
f 137/1/15 138/1/15 133/1/15
f 138/1/46 139/1/46 134/1/46
f 139/1/7 140/1/7 135/1/7
f 140/1/6 137/1/6 136/1/6
f 133/1/1 134/1/1 136/1/1
f 140/1/2 139/1/2 137/1/2
f 145/1/15 146/1/15 141/1/15
f 146/1/46 147/1/46 142/1/46
f 147/1/7 148/1/7 143/1/7
f 148/1/6 145/1/6 144/1/6
f 141/1/1 142/1/1 144/1/1
f 148/1/2 147/1/2 145/1/2
f 153/1/15 154/1/15 149/1/15
f 154/1/46 155/1/46 150/1/46
f 155/1/7 156/1/7 151/1/7
f 156/1/6 153/1/6 152/1/6
f 149/1/1 150/1/1 152/1/1
f 156/1/2 155/1/2 153/1/2
f 161/1/38 162/1/38 157/1/38
f 162/1/46 163/1/46 158/1/46
f 163/1/19 164/1/19 159/1/19
f 164/1/6 161/1/6 160/1/6
f 157/1/1 158/1/1 160/1/1
f 164/1/2 163/1/2 161/1/2
f 169/1/15 170/1/15 165/1/15
f 170/1/46 171/1/46 166/1/46
f 171/1/7 172/1/7 167/1/7
f 172/1/6 169/1/6 165/1/6
f 165/1/1 166/1/1 168/1/1
f 172/1/2 171/1/2 169/1/2
f 177/1/15 178/1/15 173/1/15
f 178/1/52 179/1/52 174/1/52
f 179/1/7 180/1/7 175/1/7
f 180/1/6 177/1/6 176/1/6
f 173/1/1 174/1/1 176/1/1
f 180/1/2 179/1/2 177/1/2
f 185/1/15 186/1/15 181/1/15
f 186/1/46 187/1/46 182/1/46
f 187/1/7 188/1/7 183/1/7
f 188/1/6 185/1/6 184/1/6
f 181/1/1 182/1/1 184/1/1
f 188/1/2 187/1/2 185/1/2
f 193/1/38 194/1/38 189/1/38
f 194/1/46 195/1/46 190/1/46
f 195/1/19 196/1/19 191/1/19
f 196/1/6 193/1/6 189/1/6
f 189/1/1 190/1/1 192/1/1
f 196/1/2 195/1/2 193/1/2
f 201/1/38 202/1/38 197/1/38
f 202/1/46 203/1/46 198/1/46
f 203/1/19 204/1/19 199/1/19
f 204/1/6 201/1/6 200/1/6
f 197/1/1 198/1/1 200/1/1
f 204/1/2 203/1/2 201/1/2
f 209/1/15 210/1/15 205/1/15
f 210/1/52 211/1/52 206/1/52
f 211/1/7 212/1/7 207/1/7
f 212/1/6 209/1/6 208/1/6
f 205/1/1 206/1/1 208/1/1
f 212/1/2 211/1/2 209/1/2
f 217/1/15 218/1/15 213/1/15
f 218/1/52 219/1/52 214/1/52
f 219/1/7 220/1/7 215/1/7
f 220/1/6 217/1/6 216/1/6
f 213/1/1 214/1/1 216/1/1
f 220/1/2 219/1/2 217/1/2
f 225/1/15 226/1/15 221/1/15
f 226/1/46 227/1/46 222/1/46
f 227/1/7 228/1/7 223/1/7
f 228/1/6 225/1/6 224/1/6
f 221/1/1 222/1/1 224/1/1
f 228/1/2 227/1/2 225/1/2
f 233/1/15 234/1/15 229/1/15
f 234/1/46 235/1/46 230/1/46
f 235/1/19 236/1/19 231/1/19
f 236/1/6 233/1/6 229/1/6
f 229/1/1 230/1/1 232/1/1
f 236/1/2 235/1/2 233/1/2
f 241/1/15 242/1/15 237/1/15
f 242/1/46 243/1/46 238/1/46
f 243/1/7 244/1/7 239/1/7
f 244/1/6 241/1/6 240/1/6
f 237/1/1 238/1/1 240/1/1
f 244/1/2 243/1/2 241/1/2
f 249/1/15 250/1/15 245/1/15
f 250/1/46 251/1/46 246/1/46
f 251/1/7 252/1/7 247/1/7
f 252/1/6 249/1/6 248/1/6
f 245/1/1 246/1/1 248/1/1
f 252/1/2 251/1/2 249/1/2
f 257/1/38 258/1/38 253/1/38
f 258/1/46 259/1/46 254/1/46
f 259/1/7 260/1/7 255/1/7
f 260/1/6 257/1/6 253/1/6
f 253/1/1 254/1/1 256/1/1
f 260/1/2 259/1/2 257/1/2
f 138/1/38 134/1/38 133/1/38
f 139/1/46 135/1/46 134/1/46
f 140/1/19 136/1/19 135/1/19
f 137/1/6 133/1/6 136/1/6
f 134/1/1 135/1/1 136/1/1
f 139/1/2 138/1/2 137/1/2
f 146/1/15 142/1/15 141/1/15
f 147/1/46 143/1/46 142/1/46
f 148/1/7 144/1/7 143/1/7
f 145/1/6 141/1/6 144/1/6
f 142/1/1 143/1/1 144/1/1
f 147/1/2 146/1/2 145/1/2
f 154/1/15 150/1/15 149/1/15
f 155/1/46 151/1/46 150/1/46
f 156/1/7 152/1/7 151/1/7
f 153/1/6 149/1/6 152/1/6
f 150/1/1 151/1/1 152/1/1
f 155/1/2 154/1/2 153/1/2
f 162/1/15 158/1/15 157/1/15
f 163/1/46 159/1/46 158/1/46
f 164/1/7 160/1/7 159/1/7
f 161/1/6 157/1/6 160/1/6
f 158/1/1 159/1/1 160/1/1
f 163/1/2 162/1/2 161/1/2
f 170/1/38 166/1/38 165/1/38
f 171/1/46 167/1/46 166/1/46
f 172/1/19 168/1/19 167/1/19
f 168/1/6 172/1/6 165/1/6
f 166/1/1 167/1/1 168/1/1
f 171/1/2 170/1/2 169/1/2
f 178/1/15 174/1/15 173/1/15
f 179/1/46 175/1/46 174/1/46
f 180/1/7 176/1/7 175/1/7
f 177/1/6 173/1/6 176/1/6
f 174/1/1 175/1/1 176/1/1
f 179/1/2 178/1/2 177/1/2
f 186/1/15 182/1/15 181/1/15
f 187/1/46 183/1/46 182/1/46
f 188/1/7 184/1/7 183/1/7
f 185/1/6 181/1/6 184/1/6
f 182/1/1 183/1/1 184/1/1
f 187/1/2 186/1/2 185/1/2
f 194/1/15 190/1/15 189/1/15
f 195/1/46 191/1/46 190/1/46
f 196/1/7 192/1/7 191/1/7
f 192/1/6 196/1/6 189/1/6
f 190/1/1 191/1/1 192/1/1
f 195/1/2 194/1/2 193/1/2
f 202/1/15 198/1/15 197/1/15
f 203/1/46 199/1/46 198/1/46
f 204/1/7 200/1/7 199/1/7
f 201/1/6 197/1/6 200/1/6
f 198/1/1 199/1/1 200/1/1
f 203/1/2 202/1/2 201/1/2
f 210/1/15 206/1/15 205/1/15
f 211/1/46 207/1/46 206/1/46
f 212/1/7 208/1/7 207/1/7
f 209/1/6 205/1/6 208/1/6
f 206/1/1 207/1/1 208/1/1
f 211/1/2 210/1/2 209/1/2
f 218/1/15 214/1/15 213/1/15
f 219/1/46 215/1/46 214/1/46
f 220/1/7 216/1/7 215/1/7
f 217/1/6 213/1/6 216/1/6
f 214/1/1 215/1/1 216/1/1
f 219/1/2 218/1/2 217/1/2
f 226/1/38 222/1/38 221/1/38
f 227/1/46 223/1/46 222/1/46
f 228/1/19 224/1/19 223/1/19
f 225/1/6 221/1/6 224/1/6
f 222/1/1 223/1/1 224/1/1
f 227/1/2 226/1/2 225/1/2
f 234/1/38 230/1/38 229/1/38
f 235/1/46 231/1/46 230/1/46
f 236/1/7 232/1/7 231/1/7
f 232/1/80 236/1/80 229/1/80
f 230/1/1 231/1/1 232/1/1
f 235/1/2 234/1/2 233/1/2
f 242/1/15 238/1/15 237/1/15
f 243/1/46 239/1/46 238/1/46
f 244/1/7 240/1/7 239/1/7
f 241/1/6 237/1/6 240/1/6
f 238/1/1 239/1/1 240/1/1
f 243/1/2 242/1/2 241/1/2
f 250/1/15 246/1/15 245/1/15
f 251/1/46 247/1/46 246/1/46
f 252/1/7 248/1/7 247/1/7
f 249/1/6 245/1/6 248/1/6
f 246/1/1 247/1/1 248/1/1
f 251/1/2 250/1/2 249/1/2
f 258/1/15 254/1/15 253/1/15
f 259/1/46 255/1/46 254/1/46
f 260/1/19 256/1/19 255/1/19
f 256/1/80 260/1/80 253/1/80
f 254/1/1 255/1/1 256/1/1
f 259/1/2 258/1/2 257/1/2
