# Blender v2.69 (sub 0) OBJ File: 'block2.blend'
# www.blender.org
mtllib block2.mtl
v 8.193589 -7.788064 8.114766
v 8.193589 -7.788064 3.885233
v 3.806409 -7.788064 3.885234
v 3.806410 -7.788064 8.114767
v 8.193592 7.788064 8.114765
v 8.193589 7.788064 3.885232
v 3.806410 7.788064 3.885234
v 3.806411 7.788064 8.114767
v 8.193589 7.788064 3.885232
v 8.193592 7.788064 8.114765
v 8.193589 -7.788064 3.885233
v 8.193589 -7.788064 8.114766
vt 0.000000 0.000000
vt 0.000000 1.000000
vt 1.000000 0.000000
vt 1.000000 1.000000
vn 0.000000 -1.000000 0.000000
vn 0.000000 1.000000 0.000000
vn 0.000000 -0.000000 -1.000000
vn -1.000000 0.000000 0.000000
vn 0.000001 0.000000 1.000000
vn 0.000000 0.000000 1.000000
vn 1.000000 -0.000000 0.000000
vn 1.000000 0.000000 -0.000001
usemtl Cube
s off
f 1/1/1 4/2/1 2/3/1
f 5/1/2 6/2/2 8/3/2
f 2/1/3 3/2/3 6/3/3
f 3/1/4 4/2/4 7/3/4
f 5/1/5 8/2/5 1/3/5
f 5/1/6 10/2/6 6/3/6
f 6/1/6 9/2/6 2/3/6
f 1/1/6 12/2/6 5/3/6
f 2/1/6 11/2/6 1/3/6
f 12/1/7 11/2/7 10/3/7
f 4/2/1 3/4/1 2/3/1
f 6/2/2 7/4/2 8/3/2
f 3/2/3 7/4/3 6/3/3
f 4/2/4 8/4/4 7/3/4
f 8/2/6 4/4/6 1/3/6
f 10/2/6 9/4/6 6/3/6
f 9/2/6 11/4/6 2/3/6
f 12/2/6 10/4/6 5/3/6
f 11/2/6 12/4/6 1/3/6
f 11/2/8 9/4/8 10/3/8
v -3.806411 -7.788064 8.114766
v -3.806411 -7.788064 3.885233
v -8.193591 -7.788064 3.885234
v -8.193590 -7.788064 8.114767
v -3.806408 7.788064 8.114765
v -3.806411 7.788064 3.885232
v -8.193590 7.788064 3.885234
v -8.193589 7.788064 8.114767
v -3.806411 7.788064 3.885232
v -3.806408 7.788064 8.114765
v -3.806411 -7.788064 3.885233
v -3.806411 -7.788064 8.114766
vt 0.000000 0.000000
vt 0.000000 1.000000
vt 1.000000 0.000000
vt 1.000000 1.000000
vn 0.000000 -1.000000 0.000000
vn 0.000000 1.000000 0.000000
vn 0.000000 -0.000000 -1.000000
vn -1.000000 -0.000000 0.000000
vn 0.000001 0.000000 1.000000
vn 0.000000 0.000000 1.000000
vn 1.000000 -0.000000 0.000000
vn 1.000000 0.000000 -0.000001
usemtl Cube
s off
f 13/5/9 16/6/9 14/7/9
f 17/5/10 18/6/10 20/7/10
f 14/5/11 15/6/11 18/7/11
f 15/5/12 16/6/12 19/7/12
f 17/5/13 20/6/13 13/7/13
f 17/5/14 22/6/14 18/7/14
f 18/5/14 21/6/14 14/7/14
f 13/5/14 24/6/14 17/7/14
f 14/5/14 23/6/14 13/7/14
f 24/5/15 23/6/15 22/7/15
f 16/6/9 15/8/9 14/7/9
f 18/6/10 19/8/10 20/7/10
f 15/6/11 19/8/11 18/7/11
f 16/6/12 20/8/12 19/7/12
f 20/6/14 16/8/14 13/7/14
f 22/6/14 21/8/14 18/7/14
f 21/6/14 23/8/14 14/7/14
f 24/6/14 22/8/14 17/7/14
f 23/6/14 24/8/14 13/7/14
f 23/6/16 21/8/16 22/7/16
v -3.806411 -7.788064 -3.885234
v -3.806411 -7.788064 -8.114767
v -8.193591 -7.788064 -8.114766
v -8.193590 -7.788064 -3.885233
v -3.806408 7.788064 -3.885235
v -3.806411 7.788064 -8.114768
v -8.193590 7.788064 -8.114766
v -8.193589 7.788064 -3.885233
v -3.806411 7.788064 -8.114768
v -3.806408 7.788064 -3.885235
v -3.806411 -7.788064 -8.114767
v -3.806411 -7.788064 -3.885234
vt 0.000000 0.000000
vt 0.000000 1.000000
vt 1.000000 0.000000
vt 1.000000 1.000000
vn 0.000000 -1.000000 0.000000
vn 0.000000 1.000000 0.000000
vn 0.000000 -0.000000 -1.000000
vn -1.000000 0.000000 0.000000
vn 0.000000 0.000000 1.000000
vn 1.000000 -0.000000 0.000000
vn 1.000000 0.000000 -0.000001
usemtl Cube
s off
f 25/9/17 28/10/17 26/11/17
f 29/9/18 30/10/18 32/11/18
f 26/9/19 27/10/19 30/11/19
f 27/9/20 28/10/20 31/11/20
f 29/9/21 32/10/21 25/11/21
f 29/9/21 34/10/21 30/11/21
f 30/9/21 33/10/21 26/11/21
f 25/9/21 36/10/21 29/11/21
f 26/9/21 35/10/21 25/11/21
f 36/9/22 35/10/22 34/11/22
f 28/10/17 27/12/17 26/11/17
f 30/10/18 31/12/18 32/11/18
f 27/10/19 31/12/19 30/11/19
f 28/10/20 32/12/20 31/11/20
f 32/10/21 28/12/21 25/11/21
f 34/10/21 33/12/21 30/11/21
f 33/10/21 35/12/21 26/11/21
f 36/10/21 34/12/21 29/11/21
f 35/10/21 36/12/21 25/11/21
f 35/10/23 33/12/23 34/11/23
v 8.193589 -7.788064 -3.885234
v 8.193589 -7.788064 -8.114767
v 3.806409 -7.788064 -8.114766
v 3.806410 -7.788064 -3.885233
v 8.193592 7.788064 -3.885235
v 8.193589 7.788064 -8.114768
v 3.806410 7.788064 -8.114766
v 3.806411 7.788064 -3.885233
v 8.193589 7.788064 -8.114768
v 8.193592 7.788064 -3.885235
v 8.193589 -7.788064 -8.114767
v 8.193589 -7.788064 -3.885234
vt 0.000000 0.000000
vt 0.000000 1.000000
vt 1.000000 0.000000
vt 1.000000 1.000000
vn 0.000000 -1.000000 0.000000
vn 0.000000 1.000000 0.000000
vn 0.000000 -0.000000 -1.000000
vn -1.000000 0.000000 0.000000
vn 0.000000 0.000000 1.000000
vn 1.000000 -0.000000 0.000000
vn 1.000000 0.000000 -0.000001
usemtl Cube
s off
f 37/13/24 40/14/24 38/15/24
f 41/13/25 42/14/25 44/15/25
f 38/13/26 39/14/26 42/15/26
f 39/13/27 40/14/27 43/15/27
f 41/13/28 44/14/28 37/15/28
f 41/13/28 46/14/28 42/15/28
f 42/13/28 45/14/28 38/15/28
f 37/13/28 48/14/28 41/15/28
f 38/13/28 47/14/28 37/15/28
f 48/13/29 47/14/29 46/15/29
f 40/14/24 39/16/24 38/15/24
f 42/14/25 43/16/25 44/15/25
f 39/14/26 43/16/26 42/15/26
f 40/14/27 44/16/27 43/15/27
f 44/14/28 40/16/28 37/15/28
f 46/14/28 45/16/28 42/15/28
f 45/14/28 47/16/28 38/15/28
f 48/14/28 46/16/28 41/15/28
f 47/14/28 48/16/28 37/15/28
f 47/14/30 45/16/30 46/15/30
v 5.975711 -7.788065 5.818278
v 5.975711 -7.788065 -5.818278
v -5.975712 -7.788064 -5.818277
v -5.975710 -7.788064 5.818280
v 5.975715 7.788064 5.818275
v 5.975708 7.788064 -5.818282
v -5.975713 7.788065 -5.818276
v -5.975710 7.788065 5.818278
v 5.975708 7.788064 -5.818282
v 5.975715 7.788064 5.818275
v 5.975711 -7.788065 -5.818278
v 5.975711 -7.788065 5.818278
vt 0.000000 0.000000
vt 0.000000 1.000000
vt 1.000000 0.000000
vt 1.000000 1.000000
vn -0.000000 -1.000000 0.000000
vn 0.000000 1.000000 -0.000000
vn -0.000000 -0.000000 -1.000000
vn -1.000000 -0.000000 0.000000
vn 0.000000 0.000000 1.000000
vn 1.000000 -0.000000 0.000000
vn 1.000000 0.000000 -0.000001
usemtl Cube
s off
f 49/17/31 52/18/31 50/19/31
f 53/17/32 54/18/32 56/19/32
f 50/17/33 51/18/33 54/19/33
f 51/17/34 52/18/34 55/19/34
f 53/17/35 56/18/35 49/19/35
f 53/17/35 58/18/35 54/19/35
f 54/17/35 57/18/35 50/19/35
f 49/17/35 60/18/35 53/19/35
f 50/17/35 59/18/35 49/19/35
f 60/17/36 59/18/36 58/19/36
f 52/18/31 51/20/31 50/19/31
f 54/18/32 55/20/32 56/19/32
f 51/18/33 55/20/33 54/19/33
f 52/18/34 56/20/34 55/19/34
f 56/18/35 52/20/35 49/19/35
f 58/18/35 57/20/35 54/19/35
f 57/18/35 59/20/35 50/19/35
f 60/18/35 58/20/35 53/19/35
f 59/18/35 60/20/35 49/19/35
f 59/18/37 57/20/37 58/19/37
