# Blender v2.69 (sub 0) OBJ File: 'block.blend'
# www.blender.org
mtllib block.mtl
v 7.788064 -7.788065 7.788064
v 7.788064 -7.788065 -7.788064
v -7.788066 -7.788064 -7.788063
v -7.788062 -7.788064 7.788067
v 7.788069 7.788064 7.788060
v 7.788060 7.788064 -7.788069
v -7.788067 7.788065 -7.788062
v -7.788064 7.788065 7.788064
v 7.788060 7.788064 -7.788069
v 7.788069 7.788064 7.788060
v 7.788064 -7.788065 -7.788064
v 7.788064 -7.788065 7.788064
vt 0.000000 0.000000
vt 0.000000 1.000000
vt 1.000000 0.000000
vt 1.000000 1.000000
vn -0.000000 -1.000000 -0.000000
vn 0.000000 1.000000 0.000000
vn -0.000000 -0.000000 -1.000000
vn -1.000000 -0.000000 0.000000
vn 0.000000 0.000000 1.000000
vn 1.000000 -0.000000 -0.000000
vn -0.000001 0.000000 -1.000000
vn 1.000000 0.000000 -0.000001
usemtl Cube
s off
f 1/1/1 4/2/1 2/3/1
f 5/1/2 6/2/2 8/3/2
f 2/1/3 3/2/3 6/3/3
f 3/1/4 4/2/4 7/3/4
f 5/1/5 8/2/5 1/3/5
f 5/1/5 10/2/5 6/3/5
f 6/1/5 9/2/5 2/3/5
f 1/1/5 12/2/5 5/3/5
f 2/1/5 11/2/5 1/3/5
f 12/1/6 11/2/6 10/3/6
f 4/2/1 3/4/1 2/3/1
f 6/2/2 7/4/2 8/3/2
f 3/2/7 7/4/7 6/3/7
f 4/2/4 8/4/4 7/3/4
f 8/2/5 4/4/5 1/3/5
f 10/2/5 9/4/5 6/3/5
f 9/2/5 11/4/5 2/3/5
f 12/2/5 10/4/5 5/3/5
f 11/2/5 12/4/5 1/3/5
f 11/2/8 9/4/8 10/3/8
