# Blender v2.69 (sub 0) OBJ File: 'edge.blend'
# www.blender.org
mtllib edge.mtl
v 7.788064 -7.788065 7.788064
v 7.788064 -7.788065 -7.788064
v -7.788066 -7.788064 -7.788063
v -7.788062 -7.788064 7.788067
v 7.788069 -5.502535 7.788060
v 7.788060 -5.502535 -7.788069
v -7.788067 7.788065 -7.788062
v -7.788064 7.788065 7.788064
v 7.788064 -7.788065 -7.788064
v 7.788064 -7.788065 7.788064
v 6.154741 -4.108871 6.154734
v 6.154734 -4.108871 -6.154742
v -6.154738 6.394401 -6.154736
v -6.154737 6.394401 6.154737
v 6.276286 2.381397 6.154732
v 6.276279 2.381397 -6.154744
v -6.033194 12.884669 -6.154737
v -6.033192 12.884669 6.154736
v 4.466116 3.925955 4.344563
v 4.466111 3.925955 -4.344573
v -4.223024 11.340111 -4.344570
v -4.223022 11.340111 4.344566
v 3.530008 2.020107 4.344563
v 3.530003 2.020107 -4.344573
v -5.159132 9.434264 -4.344570
v -5.159131 9.434263 4.344566
v 3.530008 2.020107 4.344563
v 3.530003 2.020107 -4.344573
v -5.159132 9.434264 -4.344570
v -5.159131 9.434263 4.344566
v -5.960211 19.144331 -6.154738
v -5.960209 19.144331 6.154735
v -4.150042 17.599771 -4.344571
v -4.150040 17.599771 4.344565
v 6.135801 10.187693 6.154728
v 6.135795 10.187693 -6.154747
v 4.325631 11.732251 4.344560
v 4.325626 11.732251 -4.344577
vt 0.000000 0.000000
vt 0.000000 1.000000
vt 1.000000 0.000000
vt 1.000000 1.000000
vn -0.000000 -1.000000 -0.000000
vn 0.649090 0.760711 -0.000000
vn -0.000000 0.000000 -1.000000
vn -1.000000 -0.000000 0.000000
vn 0.000002 0.000002 1.000000
vn 0.000000 0.000000 1.000000
vn 1.000000 0.000001 0.000000
vn -0.999825 0.018724 0.000000
vn 0.649090 0.760712 0.000000
vn 0.703574 -0.008203 0.710574
vn -0.000001 -0.000000 -1.000000
vn 0.000001 0.000000 1.000000
vn 0.999825 -0.018724 -0.000001
vn 0.897573 -0.440867 -0.000000
vn 0.649090 0.760712 -0.000001
vn 0.649090 0.760711 -0.000001
vn -0.712497 -0.012822 0.701558
vn -0.897572 0.440867 0.000001
vn 0.649091 0.760711 0.000000
vn 0.703574 -0.008203 -0.710574
vn 0.999932 -0.011659 -0.000000
vn -0.999932 0.011658 0.000000
vn -0.712498 -0.012823 -0.701557
vn -0.999838 -0.017993 0.000001
vn 0.999838 0.017993 -0.000001
vn -0.000002 -0.000002 -1.000000
vn 1.000000 -0.000002 -0.000001
vn 0.649091 0.760711 -0.000001
vn 0.703575 -0.008203 0.710574
vn 0.897572 -0.440868 -0.000000
vn 0.649090 0.760711 0.000001
vn -0.897573 0.440866 0.000000
vn 0.703574 -0.008203 -0.710575
vn 0.999932 -0.011658 -0.000000
vn -0.999838 -0.017994 0.000000
usemtl Cube
s off
f 1/1/1 4/2/1 2/3/1
f 7/3/2 8/4/2 13/3/2
f 2/1/3 3/2/3 7/4/3
f 3/1/4 4/2/4 7/3/4
f 5/1/5 8/2/5 1/3/5
f 2/1/6 9/2/6 1/3/6
f 1/1/6 10/2/6 5/3/6
f 6/2/6 9/4/6 2/3/6
f 10/1/7 9/2/7 6/4/7
f 13/3/8 14/4/8 17/3/8
f 6/3/2 7/4/2 12/3/2
f 8/2/9 5/1/9 14/2/9
f 5/3/9 6/4/9 11/3/9
f 18/2/10 22/2/10 32/2/10
f 12/3/11 13/4/11 17/4/11
f 14/2/12 11/1/12 18/2/12
f 11/3/13 12/4/13 15/3/13
f 21/3/14 22/4/14 25/3/14
f 16/3/15 17/4/15 20/3/15
f 18/2/16 15/1/16 22/2/16
f 19/1/17 15/1/17 37/1/17
f 25/3/6 26/4/6 29/3/6
f 20/3/6 21/4/6 24/3/6
f 22/2/3 19/1/3 23/1/3
f 19/3/18 20/4/18 23/3/18
f 27/1/9 28/2/9 30/3/9
f 24/3/6 25/4/6 28/3/6
f 26/2/6 23/1/6 30/2/6
f 23/3/6 24/4/6 27/3/6
f 31/3/19 32/4/19 33/3/19
f 21/4/20 17/4/20 31/4/20
f 22/4/21 21/3/21 34/4/21
f 17/3/22 18/4/22 31/3/22
f 35/3/2 36/4/2 37/3/2
f 16/3/23 20/3/23 38/3/23
f 20/4/24 19/3/24 38/4/24
f 15/3/25 16/4/25 35/3/25
f 4/2/1 3/4/1 2/3/1
f 8/4/9 14/4/9 13/3/9
f 6/3/26 2/1/26 7/4/26
f 4/2/4 8/4/4 7/3/4
f 8/2/6 4/4/6 1/3/6
f 9/2/6 10/4/6 1/3/6
f 5/3/27 10/1/27 6/4/27
f 14/4/8 18/4/8 17/3/8
f 7/4/28 13/4/28 12/3/28
f 5/1/9 11/1/9 14/2/9
f 6/4/2 12/4/2 11/3/2
f 22/2/29 34/2/29 32/2/29
f 16/3/11 12/3/11 17/4/11
f 11/1/12 15/1/12 18/2/12
f 12/4/13 16/4/13 15/3/13
f 22/4/30 26/4/30 25/3/30
f 17/4/31 21/4/31 20/3/31
f 15/1/2 19/1/2 22/2/2
f 15/1/17 35/1/17 37/1/17
f 26/4/6 30/4/6 29/3/6
f 21/4/6 25/4/6 24/3/6
f 26/2/3 22/2/3 23/1/3
f 20/4/32 24/4/32 23/3/32
f 28/2/2 29/4/2 30/3/2
f 25/4/6 29/4/6 28/3/6
f 23/1/6 27/1/6 30/2/6
f 24/4/6 28/4/6 27/3/6
f 32/4/2 34/4/2 33/3/2
f 33/4/33 21/4/33 31/4/33
f 21/3/34 33/3/34 34/4/34
f 18/4/22 32/4/22 31/3/22
f 36/4/9 38/4/9 37/3/9
f 36/3/23 16/3/23 38/3/23
f 19/3/35 37/3/35 38/4/35
f 16/4/25 36/4/25 35/3/25
