# Blender v2.69 (sub 0) OBJ File: 'pyramid2.blend'
# www.blender.org
mtllib pyramid2.mtl
v 8.000000 -8.000000 8.000000
v 8.000000 -8.000000 -8.000000
v -8.000000 -8.000000 -8.000000
v -8.000000 -8.000000 8.000000
v 4.000000 -1.000000 4.000000
v 4.000000 -1.000000 -4.000000
v -4.000000 -1.000000 -4.000000
v -4.000000 -1.000000 4.000000
v 1.000000 12.000000 1.000000
v 1.000000 12.000000 -1.000000
v -1.000000 12.000000 -1.000000
v -1.000000 12.000000 1.000000
v 2.000000 13.000000 2.000000
v 2.000000 13.000000 -2.000000
v -2.000000 13.000000 -2.000000
v -2.000000 13.000000 2.000000
v 0.000000 22.000000 0.000000
vt 0.000000 0.000000
vt 0.000000 1.000000
vt 1.000000 0.000000
vt 1.000000 1.000000
vn 0.000000 -1.000000 0.000000
vn 0.000000 0.216930 -0.976187
vn 0.000000 0.496139 -0.868243
vn -0.868243 0.496139 0.000000
vn 0.000000 0.496139 0.868243
vn 0.974391 0.224860 0.000000
vn -0.976187 0.216930 0.000000
vn 0.976187 0.216930 0.000000
vn -0.974391 0.224860 0.000000
vn 0.000000 0.224860 -0.974391
vn 0.000000 0.224860 0.974391
vn 0.707107 -0.707107 0.000000
vn -0.707107 -0.707107 0.000000
vn 0.000000 -0.707107 -0.707107
vn 0.000000 -0.707107 0.707107
vn 0.868243 0.496139 0.000000
vn 0.000000 0.216930 0.976187
usemtl Cube
s off
f 1/1/1 4/2/1 2/3/1
f 14/3/2 15/4/2 17/3/2
f 2/1/3 3/2/3 6/3/3
f 3/1/4 4/2/4 7/3/4
f 5/1/5 8/2/5 1/3/5
f 5/3/6 6/4/6 9/3/6
f 15/3/7 16/4/7 17/3/7
f 13/3/8 14/4/8 17/3/8
f 7/3/9 8/4/9 11/3/9
f 6/3/10 7/4/10 10/3/10
f 8/2/11 5/1/11 12/2/11
f 9/3/12 10/4/12 13/3/12
f 11/3/13 12/4/13 15/3/13
f 10/3/14 11/4/14 14/3/14
f 12/2/15 9/1/15 16/2/15
f 1/1/16 2/2/16 5/3/16
f 16/2/17 13/1/17 17/2/17
f 4/2/1 3/4/1 2/3/1
f 3/2/3 7/4/3 6/3/3
f 4/2/4 8/4/4 7/3/4
f 8/2/5 4/4/5 1/3/5
f 6/4/6 10/4/6 9/3/6
f 8/4/9 12/4/9 11/3/9
f 7/4/10 11/4/10 10/3/10
f 5/1/11 9/1/11 12/2/11
f 10/4/12 14/4/12 13/3/12
f 12/4/13 16/4/13 15/3/13
f 11/4/14 15/4/14 14/3/14
f 9/1/15 13/1/15 16/2/15
f 2/2/16 6/4/16 5/3/16
