# Blender v2.63 (sub 0) OBJ File: 'skydome_2.blend'
# www.blender.org
mtllib skydome_2.mtl
v -9.165542 1215.536011 436.448181
v -18.960476 1057.354370 818.206909
v -27.371576 805.723633 1146.030396
v -33.825645 477.792145 1397.578491
v -37.882835 95.907898 1555.708008
v -39.266670 -313.904388 1609.643066
v -212.595749 1215.536011 376.306244
v -411.957764 1057.354492 702.021545
v -583.153809 805.723755 981.719543
v -714.517151 477.792206 1196.339355
v -797.095520 95.907959 1331.255005
v -825.261597 -313.904327 1377.272339
v -358.700500 1215.536011 222.506729
v -694.210693 1057.354492 404.903381
v -982.319763 805.723755 561.531006
v -1203.393799 477.792206 681.715515
v -1342.366577 95.907959 757.266724
v -1389.767578 -313.904327 783.035889
v -408.331177 1215.536011 16.260036
v -790.089844 1057.354492 6.465090
v -1117.913452 805.723755 -1.945988
v -1369.461304 477.792206 -8.400099
v -1527.590942 95.907959 -12.457293
v -1581.526001 -313.904327 -13.841078
v 1.346228 1269.488892 26.771612
v -348.189270 1215.536011 -187.170135
v -673.904541 1057.354492 -386.532196
v -953.602478 805.723755 -557.728149
v -1168.222290 477.792206 -689.091553
v -1303.137939 95.907959 -771.669922
v -1349.155151 -313.904327 -799.835876
v -194.389740 1215.536011 -333.274933
v -376.786377 1057.354492 -668.785095
v -533.414001 805.723755 -956.894104
v -653.598450 477.792206 -1177.968140
v -729.149597 95.907959 -1316.940918
v -754.918701 -313.904327 -1364.341919
v 11.856945 1215.536011 -382.905609
v 21.651951 1057.354492 -764.664246
v 30.062979 805.723755 -1092.487915
v 36.517139 477.792206 -1344.035767
v 40.574333 95.907959 -1502.165283
v 41.958160 -313.904327 -1556.100220
v 215.287140 1215.536011 -322.763702
v 414.649170 1057.354492 -648.478882
v 585.845154 805.723755 -928.176819
v 717.208557 477.792206 -1142.796631
v 799.786987 95.907959 -1277.712280
v 827.952881 -313.904327 -1323.729370
v 361.391907 1215.536011 -168.964142
v 696.902100 1057.354492 -351.360748
v 985.011169 805.723755 -507.988434
v 1206.085205 477.792206 -628.172668
v 1345.057983 95.907959 -703.723877
v 1392.458862 -313.904327 -729.493042
v 411.022583 1215.536011 37.282532
v 792.781250 1057.354492 47.077583
v 1120.604858 805.723755 55.488567
v 1372.152710 477.792206 61.942863
v 1530.282349 95.907959 66.000015
v 1584.217163 -313.904327 67.383751
v 350.880676 1215.536011 240.712723
v 676.595825 1057.354492 440.074799
v 956.293884 805.723755 611.270752
v 1170.913574 477.792206 742.634277
v 1305.829224 95.907959 825.212646
v 1351.846436 -313.904327 853.378540
v 197.081146 1215.536011 386.817474
v 379.477661 1057.354492 722.327698
v 536.105347 805.723755 1010.436829
v 656.289673 477.792206 1231.510742
v 731.840881 95.907959 1370.483521
v 757.609985 -313.904327 1417.884521
vt 0.582658 0.614223
vt 0.665656 0.614223
vt 0.665656 0.443692
vt 0.582658 0.443692
vt 0.665656 0.252528
vt 0.582658 0.252528
vt 0.665656 0.003628
vt 0.582658 0.003628
vt 0.582658 0.896080
vt 0.665656 0.896080
vt 0.665656 0.755414
vt 0.582658 0.755414
vt 0.499661 0.443692
vt 0.499661 0.252528
vt 0.499661 0.003628
vt 0.499661 0.896080
vt 0.499661 0.755414
vt 0.499661 0.614223
vt 0.416664 0.614223
vt 0.416664 0.443692
vt 0.416664 0.252528
vt 0.416664 0.003628
vt 0.416664 0.896080
vt 0.416664 0.755414
vt 0.333666 0.614223
vt 0.333666 0.443692
vt 0.333666 0.252528
vt 0.333666 0.003628
vt 0.333666 0.896080
vt 0.333666 0.755414
vt 0.250669 0.614223
vt 0.250669 0.443692
vt 0.250669 0.252528
vt 0.250669 0.003628
vt 0.250669 0.896080
vt 0.250669 0.755414
vt 0.167672 0.755414
vt 0.167672 0.614223
vt 0.167672 0.443692
vt 0.167672 0.252528
vt 0.167672 0.003628
vt 0.167672 0.896080
vt 0.084674 0.755414
vt 0.084674 0.614223
vt 0.084674 0.443692
vt 0.084674 0.252528
vt 0.084674 0.003628
vt 0.084674 0.896080
vt 0.000027 0.755414
vt 0.000028 0.614223
vt 0.000028 0.443692
vt 0.000028 0.252528
vt 0.000028 0.003628
vt 0.000027 0.896080
vt 0.914647 0.896080
vt 1.000007 0.896080
vt 1.000007 0.755414
vt 0.914647 0.755414
vt 1.000007 0.614223
vt 0.914648 0.614223
vt 1.000007 0.443692
vt 0.914647 0.443692
vt 1.000007 0.252528
vt 0.914648 0.252528
vt 1.000007 0.003628
vt 0.914648 0.003628
vt 0.831650 0.896080
vt 0.831650 0.755414
vt 0.831650 0.614223
vt 0.831650 0.443692
vt 0.831650 0.252528
vt 0.831650 0.003628
vt 0.748653 0.896080
vt 0.748653 0.755414
vt 0.748653 0.614223
vt 0.748653 0.443692
vt 0.748653 0.252528
vt 0.748653 0.003628
vt 0.744645 0.957900
vt 0.089092 0.896080
vt 0.161391 0.898177
vn 0.227768 -0.595456 -0.770425
vn 0.263222 -0.371470 -0.890350
vn 0.281244 -0.126151 -0.951309
vn 0.111735 -0.919061 -0.377946
vn 0.176347 -0.783005 -0.596494
vn 0.673132 -0.371470 -0.639455
vn 0.719219 -0.126151 -0.683235
vn 0.285738 -0.919061 -0.271443
vn 0.450968 -0.783005 -0.428405
vn 0.582465 -0.595456 -0.553324
vn 0.781091 -0.595456 -0.187960
vn 0.902677 -0.371470 -0.217218
vn 0.964479 -0.126151 -0.232090
vn 0.383178 -0.919061 -0.092207
vn 0.604752 -0.783005 -0.145526
vn 0.770425 -0.595456 0.227768
vn 0.890350 -0.371470 0.263222
vn 0.951308 -0.126151 0.281244
vn 0.377945 -0.919061 0.111735
vn 0.596494 -0.783005 0.176347
vn 0.553324 -0.595456 0.582465
vn 0.639455 -0.371470 0.673132
vn 0.683235 -0.126151 0.719219
vn 0.271443 -0.919061 0.285738
vn 0.428406 -0.783005 0.450968
vn 0.145526 -0.783005 0.604752
vn 0.187960 -0.595456 0.781091
vn 0.217218 -0.371470 0.902677
vn 0.232090 -0.126150 0.964479
vn 0.092207 -0.919061 0.383178
vn -0.176347 -0.783005 0.596494
vn -0.227768 -0.595456 0.770425
vn -0.263222 -0.371470 0.890350
vn -0.281244 -0.126150 0.951308
vn -0.111735 -0.919061 0.377945
vn -0.450968 -0.783005 0.428406
vn -0.582465 -0.595456 0.553324
vn -0.673133 -0.371470 0.639455
vn -0.719219 -0.126150 0.683235
vn -0.285738 -0.919061 0.271443
vn -0.383178 -0.919061 0.092207
vn -0.604752 -0.783005 0.145526
vn -0.781091 -0.595456 0.187960
vn -0.902677 -0.371470 0.217218
vn -0.964479 -0.126150 0.232090
vn -0.377945 -0.919061 -0.111735
vn -0.596494 -0.783005 -0.176347
vn -0.770425 -0.595456 -0.227768
vn -0.890350 -0.371470 -0.263223
vn -0.951308 -0.126150 -0.281244
vn -0.271443 -0.919061 -0.285739
vn -0.428405 -0.783005 -0.450968
vn -0.553324 -0.595456 -0.582465
vn -0.639455 -0.371470 -0.673133
vn -0.683235 -0.126150 -0.719219
vn 0.038287 -0.990839 -0.129507
vn 0.097912 -0.990839 -0.093013
vn 0.131300 -0.990839 -0.031596
vn 0.129507 -0.990839 0.038287
vn 0.093013 -0.990839 0.097911
vn 0.031596 -0.990839 0.131300
vn -0.038287 -0.990839 0.129507
vn -0.097912 -0.990839 0.093013
vn -0.131301 -0.990839 0.031596
vn -0.129508 -0.990839 -0.038287
vn -0.093013 -0.990839 -0.097912
vn -0.031596 -0.990839 -0.131301
vn -0.092207 -0.919061 -0.383178
vn -0.145526 -0.783005 -0.604753
vn -0.187960 -0.595456 -0.781091
vn -0.217218 -0.371470 -0.902677
vn -0.232090 -0.126151 -0.964479
usemtl 
s off
f 9/1/1 3/2/1 4/3/1
f 9/1/1 4/3/1 10/4/1
f 10/4/2 4/3/2 5/5/2
f 10/4/2 5/5/2 11/6/2
f 11/6/3 5/5/3 6/7/3
f 11/6/3 6/7/3 12/8/3
f 7/9/4 1/10/4 2/11/4
f 7/9/4 2/11/4 8/12/4
f 8/12/5 2/11/5 3/2/5
f 8/12/5 3/2/5 9/1/5
f 16/13/6 10/4/6 11/6/6
f 16/13/6 11/6/6 17/14/6
f 17/14/7 11/6/7 12/8/7
f 17/14/7 12/8/7 18/15/7
f 13/16/8 7/9/8 8/12/8
f 13/16/8 8/12/8 14/17/8
f 14/17/9 8/12/9 9/1/9
f 14/17/9 9/1/9 15/18/9
f 15/18/10 9/1/10 10/4/10
f 15/18/10 10/4/10 16/13/10
f 21/19/11 15/18/11 16/13/11
f 21/19/11 16/13/11 22/20/11
f 22/20/12 16/13/12 17/14/12
f 22/20/12 17/14/12 23/21/12
f 23/21/13 17/14/13 18/15/13
f 23/21/13 18/15/13 24/22/13
f 19/23/14 13/16/14 14/17/14
f 19/23/14 14/17/14 20/24/14
f 20/24/15 14/17/15 15/18/15
f 20/24/15 15/18/15 21/19/15
f 28/25/16 21/19/16 22/20/16
f 28/25/16 22/20/16 29/26/16
f 29/26/17 22/20/17 23/21/17
f 29/26/17 23/21/17 30/27/17
f 30/27/18 23/21/18 24/22/18
f 30/27/18 24/22/18 31/28/18
f 26/29/19 19/23/19 20/24/19
f 26/29/19 20/24/19 27/30/19
f 27/30/20 20/24/20 21/19/20
f 27/30/20 21/19/20 28/25/20
f 34/31/21 28/25/21 29/26/21
f 34/31/21 29/26/21 35/32/21
f 35/32/22 29/26/22 30/27/22
f 35/32/22 30/27/22 36/33/22
f 36/33/23 30/27/23 31/28/23
f 36/33/23 31/28/23 37/34/23
f 32/35/24 26/29/24 27/30/24
f 32/35/24 27/30/24 33/36/24
f 33/36/25 27/30/25 28/25/25
f 33/36/25 28/25/25 34/31/25
f 39/37/26 33/36/26 34/31/26
f 39/37/26 34/31/26 40/38/26
f 40/38/27 34/31/27 35/32/27
f 40/38/27 35/32/27 41/39/27
f 41/39/28 35/32/28 36/33/28
f 41/39/28 36/33/28 42/40/28
f 42/40/29 36/33/29 37/34/29
f 42/40/29 37/34/29 43/41/29
f 38/42/30 32/35/30 33/36/30
f 38/42/30 33/36/30 39/37/30
f 45/43/31 39/37/31 40/38/31
f 45/43/31 40/38/31 46/44/31
f 46/44/32 40/38/32 41/39/32
f 46/44/32 41/39/32 47/45/32
f 47/45/33 41/39/33 42/40/33
f 47/45/33 42/40/33 48/46/33
f 48/46/34 42/40/34 43/41/34
f 48/46/34 43/41/34 49/47/34
f 44/48/35 38/42/35 39/37/35
f 44/48/35 39/37/35 45/43/35
f 51/49/36 45/43/36 46/44/36
f 51/49/36 46/44/36 52/50/36
f 52/50/37 46/44/37 47/45/37
f 52/50/37 47/45/37 53/51/37
f 53/51/38 47/45/38 48/46/38
f 53/51/38 48/46/38 54/52/38
f 54/52/39 48/46/39 49/47/39
f 54/52/39 49/47/39 55/53/39
f 50/54/40 44/48/40 45/43/40
f 50/54/40 45/43/40 51/49/40
f 56/55/41 50/56/41 51/57/41
f 56/55/41 51/57/41 57/58/41
f 57/58/42 51/57/42 52/59/42
f 57/58/42 52/59/42 58/60/42
f 58/60/43 52/59/43 53/61/43
f 58/60/43 53/61/43 59/62/43
f 59/62/44 53/61/44 54/63/44
f 59/62/44 54/63/44 60/64/44
f 60/64/45 54/63/45 55/65/45
f 60/64/45 55/65/45 61/66/45
f 62/67/46 56/55/46 57/58/46
f 62/67/46 57/58/46 63/68/46
f 63/68/47 57/58/47 58/60/47
f 63/68/47 58/60/47 64/69/47
f 64/69/48 58/60/48 59/62/48
f 64/69/48 59/62/48 65/70/48
f 65/70/49 59/62/49 60/64/49
f 65/70/49 60/64/49 66/71/49
f 66/71/50 60/64/50 61/66/50
f 66/71/50 61/66/50 67/72/50
f 68/73/51 62/67/51 63/68/51
f 68/73/51 63/68/51 69/74/51
f 69/74/52 63/68/52 64/69/52
f 69/74/52 64/69/52 70/75/52
f 70/75/53 64/69/53 65/70/53
f 70/75/53 65/70/53 71/76/53
f 71/76/54 65/70/54 66/71/54
f 71/76/54 66/71/54 72/77/54
f 72/77/55 66/71/55 67/72/55
f 72/77/55 67/72/55 73/78/55
f 25/79/56 1/10/56 7/9/56
f 25/79/57 7/9/57 13/16/57
f 25/79/58 13/16/58 19/23/58
f 25/79/59 19/23/59 26/29/59
f 25/79/60 26/29/60 32/35/60
f 25/79/61 32/35/61 38/80/61
f 25/79/62 38/80/62 44/81/62
f 25/79/63 44/81/63 50/56/63
f 25/79/64 50/56/64 56/55/64
f 25/79/65 56/55/65 62/67/65
f 25/79/66 62/67/66 68/73/66
f 68/73/67 1/10/67 25/79/67
f 1/10/68 68/73/68 69/74/68
f 1/10/68 69/74/68 2/11/68
f 2/11/69 69/74/69 70/75/69
f 2/11/69 70/75/69 3/2/69
f 3/2/70 70/75/70 71/76/70
f 3/2/70 71/76/70 4/3/70
f 4/3/71 71/76/71 72/77/71
f 4/3/71 72/77/71 5/5/71
f 5/5/72 72/77/72 73/78/72
f 5/5/72 73/78/72 6/7/72
