# Blender v2.66 (sub 1) OBJ File: 'skyscraper_slant.blend'
# www.blender.org
mtllib skyscraper_slant.mtl
v -9.659011 -3.525342 -10.454326
v -9.659011 -3.525345 10.614069
v 14.636960 -3.525343 -5.752526
v 14.636960 -3.525345 7.067193
v -9.659011 28.608381 10.614074
v 9.312918 -3.525343 -5.752526
v 9.312918 28.608381 -5.752521
v 15.098758 38.864487 -5.752520
v 9.312918 28.608381 7.067199
v 9.312918 -3.525345 7.067193
v 15.098758 38.864487 7.067200
v -5.525876 56.008110 7.067203
v -5.525876 56.008110 -5.752517
v 9.312918 -3.525342 -10.454326
v 9.312918 28.608381 -10.454321
v -5.525876 28.608381 7.067199
v 9.312918 28.608381 10.614074
v 9.312918 -3.525345 10.614069
v -9.659011 28.608381 -10.454321
v -5.525876 28.608381 -5.752521
vt 0.190876 0.602218
vt 0.012124 0.602218
vt 0.012124 0.011119
vt 0.551618 0.498841
vt 0.314724 0.498841
vt 0.617161 0.422465
vt 0.893258 0.011791
vt 0.893258 0.538082
vt 0.983940 0.012203
vt 0.833187 0.407624
vt 0.833187 0.009963
vt 0.877605 0.009963
vt 0.227839 0.773047
vt 0.227839 0.422465
vt 0.275696 0.009963
vt 0.275696 0.407624
vt 0.235832 0.407624
vt 0.647653 0.538082
vt 0.983940 0.707264
vt 0.531358 0.524100
vt 0.531359 0.942712
vt 0.335499 0.524100
vt 0.617160 0.773046
vt 0.454925 0.009963
vt 0.454925 0.407624
vt 0.647653 0.986754
vt 0.190876 0.976176
vt 0.012124 0.976176
vt 0.653958 0.009963
vt 0.190876 0.011119
vt 0.877605 0.407624
vt 0.314724 0.773047
vt 0.235832 0.009963
vt 0.335499 0.942712
vt 0.551617 0.773046
vt 0.653958 0.407624
vn 0.999941 -0.010893 0.000000
vn -0.000000 1.000000 0.000000
vn 0.000000 0.000000 -1.000000
vn 1.000000 0.000000 0.000000
vn 0.000000 -0.000000 1.000000
vn -1.000000 -0.000000 0.000000
vn 0.639225 0.769020 0.000000
usemtl None
s off
f 8/1/1 11/2/1 4/3/1
f 16/4/2 20/5/2 5/6/2
f 6/7/3 7/8/3 3/9/3
f 14/10/4 15/11/4 7/12/4
f 9/8/5 10/7/5 4/9/5
f 15/13/2 19/14/2 20/5/2
f 17/15/4 18/16/4 10/17/4
f 16/18/5 9/8/5 11/19/5
f 16/20/6 12/21/6 20/22/6
f 5/6/2 17/23/2 16/4/2
f 20/18/3 8/19/3 7/8/3
f 17/15/5 5/24/5 2/25/5
f 20/18/3 13/26/3 8/19/3
f 11/19/5 12/26/5 16/18/5
f 13/27/7 12/28/7 11/2/7
f 19/29/3 15/11/3 14/10/3
f 5/24/6 19/29/6 2/25/6
f 3/30/1 8/1/1 4/3/1
f 20/5/2 19/14/2 5/6/2
f 7/8/3 8/19/3 3/9/3
f 6/31/4 14/10/4 7/12/4
f 11/19/5 9/8/5 4/9/5
f 7/32/2 15/13/2 20/5/2
f 9/33/4 17/15/4 10/17/4
f 12/21/6 13/34/6 20/22/6
f 17/23/2 9/35/2 16/4/2
f 18/16/5 17/15/5 2/25/5
f 8/1/7 13/27/7 11/2/7
f 1/36/3 19/29/3 14/10/3
f 19/29/6 1/36/6 2/25/6
