# Blender v2.63 (sub 0) OBJ File: 'skyscraper_towers.blend'
# www.blender.org
mtllib skyscraper_towers.mtl
v -14.742906 -4.562227 5.470143
v -14.742906 -4.562227 -3.980188
v 12.285373 -4.562227 -3.980188
v 12.285373 -4.562227 5.470143
v -14.742906 49.180191 5.470143
v -14.742906 49.180191 -3.980188
v 12.285373 49.180191 -3.980188
v 12.285373 49.180191 5.470143
v -7.514586 -4.272278 5.470143
v 8.514984 -4.272278 5.470143
v -7.514586 32.276520 5.470143
v 8.514984 32.276520 5.470143
v -7.514586 -4.272278 13.075394
v 8.514984 -4.272278 13.075394
v -7.514586 32.276520 13.075394
v 8.514984 32.276520 13.075394
v -9.251030 -4.170769 -3.980188
v 10.251427 -4.170769 -3.980188
v -9.251030 40.296509 -3.980188
v 10.251427 40.296509 -3.980188
v -9.251030 -4.170769 -7.773487
v 10.251427 -4.170769 -7.773487
v -9.251030 40.296509 -7.773487
v 10.251427 40.296509 -7.773487
vn -1.000000 -0.000000 0.000000
vn 0.000000 0.000000 -1.000000
vn 1.000000 -0.000000 0.000000
vn 0.000000 0.000000 1.000000
vn -0.000000 1.000000 0.000000
usemtl 
s off
f 2//1 1//1 5//1
f 2//1 5//1 6//1
f 6//2 7//2 20//2
f 6//2 20//2 19//2
f 7//3 8//3 4//3
f 7//3 4//3 3//3
f 12//4 10//4 4//4
f 12//4 4//4 8//4
f 8//5 7//5 6//5
f 8//5 6//5 5//5
f 8//4 5//4 11//4
f 8//4 11//4 12//4
f 5//4 1//4 9//4
f 5//4 9//4 11//4
f 16//4 15//4 13//4
f 16//4 13//4 14//4
f 13//1 15//1 11//1
f 13//1 11//1 9//1
f 16//3 14//3 10//3
f 16//3 10//3 12//3
f 12//5 11//5 15//5
f 12//5 15//5 16//5
f 20//3 18//3 22//3
f 20//3 22//3 24//3
f 19//2 17//2 2//2
f 19//2 2//2 6//2
f 7//2 3//2 18//2
f 7//2 18//2 20//2
f 23//2 24//2 22//2
f 23//2 22//2 21//2
f 23//1 21//1 17//1
f 23//1 17//1 19//1
f 19//5 20//5 24//5
f 19//5 24//5 23//5
