# Blender v2.66 (sub 1) OBJ File: 'tree_fir.blend'
# www.blender.org
mtllib tree_fir.mtl
v -1.143384 -1.966536 -1.090387
v -1.143384 1.503006 -0.462064
v 0.780409 -1.966536 0.307331
v 0.182839 1.503006 0.501493
v 0.045585 -1.966536 2.568886
v -0.323733 1.503006 2.060563
v -2.332354 -1.966536 2.568886
v -1.963036 1.503006 2.060562
v -3.067178 -1.966536 0.307331
v -2.469608 1.503006 0.501493
v -1.143384 3.341285 -0.462064
v 0.182840 3.341285 0.501493
v -0.323733 3.341285 2.060563
v -1.963035 3.341285 2.060562
v -2.469607 3.341285 0.501493
v -1.143384 -5.904637 -2.859194
v 2.462645 -5.904637 -0.239260
v 1.085264 -5.904637 3.999881
v -3.372033 -5.904637 3.999880
v -4.749413 -5.904637 -0.239261
v -3.119656 4.738706 -4.920413
v 5.094564 4.776826 -0.838645
v 2.225361 4.776826 5.569090
v -5.511660 4.776826 6.389834
v -7.637053 4.776826 -0.171661
v -1.143384 6.645453 -3.227441
v 2.394627 6.645453 -0.263336
v 1.190099 6.643227 4.312840
v -3.958058 6.645453 4.806474
v -5.697620 6.645453 -0.547352
v -1.143384 8.187565 -2.333766
v 1.962933 8.187565 -0.076894
v 0.776425 8.187565 3.574800
v -3.063194 8.187565 3.574800
v -4.249700 8.187565 -0.076894
v -0.396960 9.066708 -3.726200
v 3.516151 9.523190 0.234850
v 0.560577 8.901486 4.440680
v -4.535832 9.756404 4.275983
v -5.373359 8.868501 -1.228642
v -1.143384 10.481496 -1.853710
v 1.506373 10.481496 0.071451
v 0.494255 10.481496 3.186427
v -2.781024 10.481496 3.186427
v -3.793141 10.481496 0.071451
v -1.143384 12.135522 -1.032307
v 0.725171 12.135522 0.325279
v 0.011446 12.135522 2.521898
v -2.298215 12.135522 2.521898
v -3.011940 12.135522 0.325278
v -2.374171 13.034172 -1.834538
v 1.107804 13.034172 -1.698806
v 2.453302 13.034172 2.447478
v -1.774028 13.034172 4.147709
v -4.521028 13.034172 1.247923
v -1.606064 15.614606 -0.240075
v -0.179908 15.778490 0.129377
v -0.085243 15.763171 1.608592
v -1.452893 15.589819 2.153345
v -2.392812 15.498001 1.010807
v -1.143386 19.600885 0.932409
v 5.094564 4.776826 -0.838645
v -3.119656 4.738706 -4.920413
v 2.225361 4.776826 5.569090
v -5.511660 4.776826 6.389834
v -7.637053 4.776826 -0.171661
v 3.516151 9.523190 0.234850
v -0.396960 9.066708 -3.726200
v 0.560577 8.901486 4.440680
v -4.535832 9.756404 4.275983
v -5.373359 8.868501 -1.228642
v 1.107804 13.034172 -1.698806
v -2.374171 13.034172 -1.834538
v 2.453302 13.034172 2.447478
v -1.774028 13.034172 4.147709
v -4.521028 13.034172 1.247923
vt 0.400334 0.117998
vt 0.400334 0.218537
vt 0.202508 0.218537
vt 0.202508 0.117998
vt 0.004681 0.218537
vt 0.993815 0.117998
vt 0.993815 0.218537
vt 0.795988 0.117998
vt 0.795988 0.218537
vt 0.795988 0.271806
vt 0.598160 0.117998
vt 0.598160 0.218537
vt 0.004681 0.117998
vt 0.004681 0.003881
vt 0.215439 0.345857
vt 0.391911 0.345857
vt 0.215439 0.400998
vt 0.400334 0.271806
vt 0.202508 0.271806
vt 0.598160 0.271806
vt 0.598160 0.003881
vt 0.795988 0.003881
vt 0.993815 0.003881
vt 0.202508 0.003881
vt 0.744855 0.400998
vt 0.921327 0.400998
vt 0.744855 0.472774
vt 0.568383 0.345857
vt 0.610057 0.400998
vt 0.038968 0.345857
vt 0.038968 0.400998
vt 0.744855 0.345857
vt 0.921327 0.345857
vt 0.568383 0.472774
vt 0.568383 0.532008
vt 0.443731 0.400998
vt 0.391911 0.472774
vt 0.215439 0.472774
vt 0.391911 0.532008
vt 0.369600 0.558163
vt 0.038968 0.472774
vt 0.038968 0.532008
vt 0.921327 0.472774
vt 0.744855 0.532008
vt 0.721777 0.592269
vt 0.896586 0.559430
vt 0.744855 0.620120
vt 0.215439 0.532008
vt 0.192190 0.583311
vt 0.921327 0.532008
vt 0.546172 0.558163
vt 0.568383 0.620120
vt 0.568383 0.683653
vt 0.215439 0.620120
vt 0.014226 0.559430
vt 0.038968 0.620120
vt 0.215439 0.683653
vt 0.391911 0.683653
vt 0.274215 0.718171
vt 0.391911 0.620120
vt 0.921327 0.620120
vt 0.744855 0.683653
vt 0.097743 0.718171
vt 0.038968 0.818603
vt 0.627159 0.718171
vt 0.038968 0.683653
vt 0.921327 0.683653
vt 0.803630 0.718171
vt 0.980103 0.718171
vt 0.921327 0.818603
vt 0.744855 0.818603
vt 0.450687 0.718171
vt 0.391911 0.818603
vt 0.581950 0.970406
vt 0.568383 0.818603
vt 0.215439 0.818603
vt 0.196946 0.821503
vt 0.049027 0.821503
vt 0.562372 0.973306
vt 0.993815 0.271806
vt 0.004681 0.271806
vt 0.400334 0.003881
vn 0.000000 0.309885 -0.950743
vn 0.000000 0.092593 -0.995697
vn 0.946959 0.092593 -0.307688
vn 0.904233 0.309885 -0.293802
vn 0.585253 0.092593 0.805536
vn 0.558824 0.309885 0.769189
vn -0.558824 0.309885 0.769189
vn -0.585253 0.092593 0.805536
vn -0.378552 -0.754234 0.536424
vn -0.904233 0.309885 -0.293802
vn -0.946959 0.092593 -0.307688
vn 0.536180 0.409711 0.737968
vn 0.644551 -0.737480 -0.201666
vn 0.017640 -0.724174 -0.689352
vn 0.265450 -0.960479 -0.083346
vn -0.630055 -0.739402 -0.237220
vn -0.867550 0.409711 -0.281869
vn -0.536180 0.409711 0.737968
vn 0.867550 0.409711 -0.281869
vn -0.376202 0.760643 0.529008
vn 0.452528 0.691794 0.562670
vn -0.332408 0.732719 0.593768
vn -0.254280 -0.965697 -0.052400
vn 0.418073 -0.724754 0.547624
vn 0.183660 -0.950926 0.248878
vn -0.144688 -0.967528 0.207190
vn -0.676321 0.630665 -0.380535
vn -0.960021 -0.186956 -0.208197
vn -0.654256 0.742424 -0.143895
vn 0.582476 0.796930 -0.159917
vn -0.202795 0.759239 -0.618366
vn 0.114505 0.550493 -0.826930
vn 0.724113 0.655080 -0.215613
vn -0.081118 -0.266579 -0.960387
vn 0.126072 -0.849849 -0.511704
vn 0.505203 0.601581 0.618763
vn 0.634724 -0.127903 0.762047
vn -0.473556 0.048097 0.879421
vn -0.249458 0.941862 0.225013
vn 0.318033 0.621052 0.716300
vn -0.325419 0.753227 0.571581
vn 0.886196 -0.348979 -0.304697
vn 0.692404 -0.717490 -0.075838
vn -0.482070 -0.718040 0.501999
vn -0.382519 -0.909024 -0.165227
vn -0.754418 0.629597 -0.185583
vn -0.885525 -0.030641 -0.463546
vn -0.484176 0.816187 -0.315195
vn 0.517685 0.853969 -0.051912
vn 0.033601 0.812891 -0.581408
vn 0.601001 0.754875 -0.262459
vn 0.455367 0.572985 0.681356
vn 0.977355 0.194555 -0.082888
vn -0.056642 -0.320322 -0.945585
vn 0.340037 -0.865993 -0.366619
vn -0.083193 0.661672 -0.745109
vn -0.747581 0.040162 0.662923
vn 0.655812 0.698233 0.286874
vn 0.481124 0.642354 -0.596545
vn 0.711051 0.524766 0.467971
vn -0.437147 -0.897458 0.058809
vn 0.536912 -0.362285 0.761864
vn -0.138615 -0.834803 0.532762
vn -0.168126 0.609607 0.774621
vn -0.773339 0.630879 0.062349
vn -0.251259 0.514756 0.819666
vn -0.366070 0.565569 -0.738945
vn -0.362835 0.496719 -0.788415
vn -0.008545 0.999939 0.001282
vn -0.847468 0.528428 0.050203
vn 0.684652 0.490188 -0.539384
vn -0.065859 -0.960112 -0.271706
vn 0.000000 0.409711 -0.912198
vn 0.169958 -0.739097 0.651753
vn -0.297708 -0.829524 -0.472457
vn 0.346171 -0.931272 0.113407
usemtl Tree
s 1
f 1/1/1 2/2/2 4/3/3
f 3/4/4 4/3/3 6/5/5
f 5/6/6 6/7/5 7/8/7
f 8/9/8 6/7/5 14/10/9
f 9/11/10 10/12/11 1/1/1
f 7/8/7 8/9/8 9/11/10
f 3/4/4 5/13/6 18/14/12
f 12/15/13 11/16/14 22/17/15
f 4/3/3 2/2/2 11/18/14
f 6/5/5 4/3/3 12/19/13
f 2/2/2 10/12/11 11/18/14
f 10/12/11 8/9/8 15/20/16
f 9/11/10 1/1/1 20/21/17
f 7/8/7 9/11/10 19/22/18
f 5/6/6 7/8/7 18/23/12
f 1/1/1 3/4/4 17/24/19
f 24/25/20 64/26/21 29/27/22
f 11/16/14 15/28/16 25/29/23
f 13/30/24 12/15/13 23/31/25
f 14/32/9 13/33/24 65/25/26
f 15/28/16 14/32/9 65/25/26
f 30/34/27 29/27/22 35/35/28
f 66/29/29 24/25/20 30/34/27
f 62/17/30 63/36/31 26/37/32
f 63/36/31 66/29/29 26/37/32
f 64/31/21 62/17/30 27/38/33
f 31/39/34 35/35/28 36/40/35
f 27/38/33 26/37/32 31/39/34
f 26/37/32 30/34/27 31/39/34
f 28/41/36 27/38/33 33/42/37
f 29/27/22 28/43/36 34/44/38
f 39/45/39 69/46/40 44/47/41
f 33/42/37 32/48/42 37/49/43
f 34/44/38 33/50/37 70/45/44
f 35/35/28 34/44/38 40/51/45
f 32/48/42 31/39/34 36/40/35
f 45/52/46 44/47/41 50/53/47
f 71/51/48 39/45/39 44/47/41
f 67/49/49 68/40/50 42/54/51
f 68/40/50 71/51/48 45/52/46
f 69/55/40 67/49/49 43/56/52
f 47/57/53 46/58/54 52/59/55
f 42/54/51 41/60/56 46/58/54
f 41/60/56 45/52/46 46/58/54
f 43/56/52 42/54/51 47/57/53
f 44/47/41 43/61/52 49/62/57
f 53/63/58 72/59/59 58/64/60
f 46/58/54 50/53/47 55/65/61
f 48/66/62 47/57/53 52/59/55
f 49/62/57 48/67/62 54/68/63
f 50/53/47 49/62/57 54/68/63
f 75/68/64 53/69/58 58/70/60
f 76/65/65 75/68/64 59/71/66
f 72/59/59 73/72/67 56/73/68
f 73/72/67 76/65/65 56/73/68
f 59/71/66 58/70/60 61/74/69
f 60/75/70 59/71/66 61/74/69
f 57/76/71 56/73/68 61/74/69
f 56/73/68 60/75/70 61/74/69
f 58/77/60 57/78/71 61/79/69
f 3/4/4 1/1/1 4/3/3
f 5/13/6 3/4/4 6/5/5
f 6/7/5 8/9/8 7/8/7
f 6/7/5 13/80/24 14/10/9
f 10/12/11 2/2/2 1/1/1
f 8/9/8 10/12/11 9/11/10
f 17/24/19 3/4/4 18/14/12
f 11/16/14 21/36/72 22/17/15
f 12/19/13 4/3/3 11/18/14
f 13/81/24 6/5/5 12/19/13
f 10/12/11 15/20/16 11/18/14
f 8/9/8 14/10/9 15/20/16
f 1/1/1 16/82/73 20/21/17
f 9/11/10 20/21/17 19/22/18
f 7/8/7 19/22/18 18/23/12
f 16/82/73 1/1/1 17/24/19
f 64/26/21 28/43/36 29/27/22
f 21/36/72 11/16/14 25/29/23
f 12/15/13 22/17/15 23/31/25
f 13/33/24 23/26/25 65/25/26
f 25/29/23 15/28/16 65/25/26
f 29/27/22 34/44/38 35/35/28
f 24/25/20 29/27/22 30/34/27
f 27/38/33 62/17/30 26/37/32
f 66/29/29 30/34/27 26/37/32
f 28/41/36 64/31/21 27/38/33
f 35/35/28 40/51/45 36/40/35
f 32/48/42 27/38/33 31/39/34
f 30/34/27 35/35/28 31/39/34
f 27/38/33 32/48/42 33/42/37
f 28/43/36 33/50/37 34/44/38
f 69/46/40 43/61/52 44/47/41
f 38/55/74 33/42/37 37/49/43
f 33/50/37 38/46/74 70/45/44
f 34/44/38 70/45/44 40/51/45
f 37/49/43 32/48/42 36/40/35
f 44/47/41 49/62/57 50/53/47
f 45/52/46 71/51/48 44/47/41
f 68/40/50 41/60/56 42/54/51
f 41/60/56 68/40/50 45/52/46
f 67/49/49 42/54/51 43/56/52
f 46/58/54 51/72/75 52/59/55
f 47/57/53 42/54/51 46/58/54
f 45/52/46 50/53/47 46/58/54
f 48/66/62 43/56/52 47/57/53
f 43/61/52 48/67/62 49/62/57
f 72/59/59 57/76/71 58/64/60
f 51/72/75 46/58/54 55/65/61
f 74/63/76 48/66/62 52/59/55
f 48/67/62 74/69/76 54/68/63
f 55/65/61 50/53/47 54/68/63
f 59/71/66 75/68/64 58/70/60
f 60/75/70 76/65/65 59/71/66
f 57/76/71 72/59/59 56/73/68
f 76/65/65 60/75/70 56/73/68
