# Blender v2.63 (sub 0) OBJ File: 'skydome_2.blend'
# www.blender.org
mtllib skydome_2.mtl
v -429.913330 1215.536011 0.441045
v -811.797668 1057.354370 0.441045
v -1139.729126 805.723633 0.441045
v -1391.359985 477.792145 0.441045
v -1549.541504 95.907898 0.441045
v -1603.494385 -313.904388 0.441045
v -375.008942 1215.536011 -204.464844
v -705.730530 1057.354492 -395.407013
v -989.727478 805.723755 -559.372742
v -1207.646118 477.792206 -685.188110
v -1344.635376 95.907959 -764.278931
v -1391.359985 -313.904327 -791.255371
v -225.007416 1215.536011 -354.466339
v -415.949585 1057.354492 -685.187927
v -579.915344 805.723755 -969.184814
v -705.730713 477.792206 -1187.103516
v -784.821472 95.907959 -1324.092773
v -811.797974 -313.904327 -1370.817261
v -20.101553 1215.536011 -409.370667
v -20.101542 1057.354492 -791.255005
v -20.101564 805.723755 -1119.186523
v -20.101519 477.792206 -1370.817261
v -20.101519 95.907959 -1528.998779
v -20.101564 -313.904327 -1582.951660
v -20.101873 1269.488892 0.441579
v 184.804291 1215.536011 -354.466309
v 375.746490 1057.354492 -685.187866
v 539.712219 805.723755 -969.184814
v 665.527588 477.792206 -1187.103394
v 744.618408 95.907959 -1324.092651
v 771.594788 -313.904327 -1370.817261
v 334.805786 1215.536011 -204.464813
v 665.527344 1057.354492 -395.406952
v 949.524231 805.723755 -559.372742
v 1167.442871 477.792206 -685.187988
v 1304.432129 95.907959 -764.278809
v 1351.156616 -313.904327 -791.255188
v 389.710144 1215.536011 0.441045
v 771.594482 1057.354492 0.441116
v 1099.526001 805.723755 0.441045
v 1351.156616 477.792206 0.441140
v 1509.338257 95.907959 0.441140
v 1563.290894 -313.904327 0.441140
v 334.805786 1215.536011 205.346893
v 665.527283 1057.354492 396.289124
v 949.524231 805.723755 560.254822
v 1167.442749 477.792206 686.070251
v 1304.432007 95.907959 765.161072
v 1351.156494 -313.904327 792.137390
v 184.804291 1215.536011 355.348389
v 375.746368 1057.354492 686.070007
v 539.712219 805.723755 970.066895
v 665.527344 477.792206 1187.985596
v 744.618164 95.907959 1324.974854
v 771.594604 -313.904327 1371.699219
v -20.101564 1215.536011 410.252747
v -20.101683 1057.354492 792.137085
v -20.101564 805.723755 1120.068604
v -20.101801 477.792206 1371.699219
v -20.101753 95.907959 1529.880859
v -20.101660 -313.904327 1583.833496
v -225.007416 1215.536011 355.348389
v -415.949677 1057.354492 686.069885
v -579.915344 805.723755 970.066895
v -705.730835 477.792206 1187.985352
v -784.821594 95.907959 1324.974609
v -811.797974 -313.904327 1371.699097
v -375.008911 1215.536011 205.346893
v -705.730530 1057.354492 396.288940
v -989.727478 805.723755 560.254822
v -1207.646118 477.792206 686.069885
v -1344.635376 95.907959 765.160767
v -1391.359863 -313.904327 792.137207
vt 0.582658 0.529277
vt 0.665656 0.529277
vt 0.665656 0.382183
vt 0.582658 0.382183
vt 0.665656 0.217292
vt 0.582658 0.217292
vt 0.665656 0.002600
vt 0.582658 0.002600
vt 0.582658 0.772396
vt 0.665656 0.772396
vt 0.665656 0.651063
vt 0.582658 0.651063
vt 0.499661 0.382183
vt 0.499661 0.217292
vt 0.499661 0.002600
vt 0.499661 0.772396
vt 0.499661 0.651063
vt 0.499661 0.529277
vt 0.416664 0.529277
vt 0.416664 0.382183
vt 0.416664 0.217292
vt 0.416664 0.002600
vt 0.416664 0.772396
vt 0.416664 0.651063
vt 0.333666 0.529277
vt 0.333666 0.382183
vt 0.333666 0.217292
vt 0.333666 0.002600
vt 0.333666 0.772396
vt 0.333666 0.651063
vt 0.250669 0.529277
vt 0.250669 0.382183
vt 0.250669 0.217292
vt 0.250669 0.002600
vt 0.250669 0.772396
vt 0.250669 0.651063
vt 0.167672 0.651063
vt 0.167672 0.529277
vt 0.167672 0.382183
vt 0.167672 0.217292
vt 0.167672 0.002600
vt 0.167672 0.772396
vt 0.084674 0.651063
vt 0.084674 0.529277
vt 0.084674 0.382183
vt 0.084674 0.217292
vt 0.084674 0.002600
vt 0.084674 0.772396
vt 0.001677 0.651063
vt 0.001677 0.529277
vt 0.001677 0.382183
vt 0.001677 0.217292
vt 0.001677 0.002600
vt 0.001677 0.772396
vt 0.914647 0.772396
vt 0.997645 0.772396
vt 0.997645 0.651063
vt 0.914647 0.651063
vt 0.997645 0.529277
vt 0.914648 0.529277
vt 0.997645 0.382183
vt 0.914647 0.382183
vt 0.997645 0.217292
vt 0.914648 0.217292
vt 0.997645 0.002600
vt 0.914648 0.002600
vt 0.831650 0.772396
vt 0.831650 0.651063
vt 0.831650 0.529277
vt 0.831650 0.382183
vt 0.831650 0.217292
vt 0.831650 0.002600
vt 0.748653 0.772396
vt 0.748653 0.651063
vt 0.748653 0.529277
vt 0.748653 0.382183
vt 0.748653 0.217292
vt 0.748653 0.002600
vt 0.744645 0.957900
vt 0.089092 0.772396
vt 0.161391 0.774205
vn 0.776013 -0.595456 0.207932
vn 0.896809 -0.371470 0.240299
vn 0.958209 -0.126151 0.256751
vn 0.380687 -0.919061 0.102005
vn 0.600821 -0.783005 0.160989
vn 0.656510 -0.371470 0.656510
vn 0.701458 -0.126151 0.701458
vn 0.278682 -0.919061 0.278682
vn 0.439831 -0.783005 0.439831
vn 0.568081 -0.595456 0.568081
vn 0.207932 -0.595456 0.776013
vn 0.240299 -0.371470 0.896809
vn 0.256751 -0.126151 0.958209
vn 0.102005 -0.919061 0.380687
vn 0.160989 -0.783005 0.600821
vn -0.207932 -0.595456 0.776013
vn -0.240299 -0.371470 0.896809
vn -0.256751 -0.126151 0.958209
vn -0.102005 -0.919061 0.380687
vn -0.160989 -0.783005 0.600821
vn -0.568081 -0.595456 0.568081
vn -0.656510 -0.371470 0.656510
vn -0.701458 -0.126151 0.701458
vn -0.278682 -0.919061 0.278682
vn -0.439832 -0.783005 0.439831
vn -0.600821 -0.783005 0.160990
vn -0.776013 -0.595456 0.207932
vn -0.896809 -0.371470 0.240299
vn -0.958209 -0.126150 0.256751
vn -0.380687 -0.919061 0.102005
vn -0.600821 -0.783005 -0.160990
vn -0.776013 -0.595456 -0.207932
vn -0.896809 -0.371470 -0.240299
vn -0.958209 -0.126150 -0.256751
vn -0.380687 -0.919061 -0.102005
vn -0.439831 -0.783005 -0.439831
vn -0.568081 -0.595456 -0.568081
vn -0.656510 -0.371470 -0.656510
vn -0.701458 -0.126150 -0.701458
vn -0.278682 -0.919061 -0.278682
vn -0.102005 -0.919061 -0.380687
vn -0.160989 -0.783005 -0.600821
vn -0.207932 -0.595456 -0.776013
vn -0.240299 -0.371470 -0.896809
vn -0.256751 -0.126150 -0.958209
vn 0.102005 -0.919061 -0.380687
vn 0.160990 -0.783005 -0.600821
vn 0.207932 -0.595456 -0.776013
vn 0.240299 -0.371470 -0.896809
vn 0.256751 -0.126150 -0.958209
vn 0.278682 -0.919061 -0.278682
vn 0.439831 -0.783005 -0.439831
vn 0.568081 -0.595456 -0.568081
vn 0.656510 -0.371470 -0.656510
vn 0.701458 -0.126151 -0.701458
vn 0.130447 -0.990839 0.034953
vn 0.095494 -0.990839 0.095494
vn 0.034953 -0.990839 0.130447
vn -0.034953 -0.990839 0.130447
vn -0.095494 -0.990839 0.095494
vn -0.130447 -0.990839 0.034953
vn -0.130447 -0.990839 -0.034953
vn -0.095494 -0.990839 -0.095494
vn -0.034953 -0.990839 -0.130447
vn 0.034953 -0.990839 -0.130447
vn 0.095494 -0.990839 -0.095494
vn 0.130447 -0.990839 -0.034953
vn 0.380687 -0.919061 -0.102005
vn 0.600821 -0.783005 -0.160989
vn 0.776013 -0.595456 -0.207932
vn 0.896809 -0.371470 -0.240299
vn 0.958209 -0.126151 -0.256752
usemtl 
s off
f 9/1/1 3/2/1 4/3/1
f 9/1/1 4/3/1 10/4/1
f 10/4/2 4/3/2 5/5/2
f 10/4/2 5/5/2 11/6/2
f 11/6/3 5/5/3 6/7/3
f 11/6/3 6/7/3 12/8/3
f 7/9/4 1/10/4 2/11/4
f 7/9/4 2/11/4 8/12/4
f 8/12/5 2/11/5 3/2/5
f 8/12/5 3/2/5 9/1/5
f 16/13/6 10/4/6 11/6/6
f 16/13/6 11/6/6 17/14/6
f 17/14/7 11/6/7 12/8/7
f 17/14/7 12/8/7 18/15/7
f 13/16/8 7/9/8 8/12/8
f 13/16/8 8/12/8 14/17/8
f 14/17/9 8/12/9 9/1/9
f 14/17/9 9/1/9 15/18/9
f 15/18/10 9/1/10 10/4/10
f 15/18/10 10/4/10 16/13/10
f 21/19/11 15/18/11 16/13/11
f 21/19/11 16/13/11 22/20/11
f 22/20/12 16/13/12 17/14/12
f 22/20/12 17/14/12 23/21/12
f 23/21/13 17/14/13 18/15/13
f 23/21/13 18/15/13 24/22/13
f 19/23/14 13/16/14 14/17/14
f 19/23/14 14/17/14 20/24/14
f 20/24/15 14/17/15 15/18/15
f 20/24/15 15/18/15 21/19/15
f 28/25/16 21/19/16 22/20/16
f 28/25/16 22/20/16 29/26/16
f 29/26/17 22/20/17 23/21/17
f 29/26/17 23/21/17 30/27/17
f 30/27/18 23/21/18 24/22/18
f 30/27/18 24/22/18 31/28/18
f 26/29/19 19/23/19 20/24/19
f 26/29/19 20/24/19 27/30/19
f 27/30/20 20/24/20 21/19/20
f 27/30/20 21/19/20 28/25/20
f 34/31/21 28/25/21 29/26/21
f 34/31/21 29/26/21 35/32/21
f 35/32/22 29/26/22 30/27/22
f 35/32/22 30/27/22 36/33/22
f 36/33/23 30/27/23 31/28/23
f 36/33/23 31/28/23 37/34/23
f 32/35/24 26/29/24 27/30/24
f 32/35/24 27/30/24 33/36/24
f 33/36/25 27/30/25 28/25/25
f 33/36/25 28/25/25 34/31/25
f 39/37/26 33/36/26 34/31/26
f 39/37/26 34/31/26 40/38/26
f 40/38/27 34/31/27 35/32/27
f 40/38/27 35/32/27 41/39/27
f 41/39/28 35/32/28 36/33/28
f 41/39/28 36/33/28 42/40/28
f 42/40/29 36/33/29 37/34/29
f 42/40/29 37/34/29 43/41/29
f 38/42/30 32/35/30 33/36/30
f 38/42/30 33/36/30 39/37/30
f 45/43/31 39/37/31 40/38/31
f 45/43/31 40/38/31 46/44/31
f 46/44/32 40/38/32 41/39/32
f 46/44/32 41/39/32 47/45/32
f 47/45/33 41/39/33 42/40/33
f 47/45/33 42/40/33 48/46/33
f 48/46/34 42/40/34 43/41/34
f 48/46/34 43/41/34 49/47/34
f 44/48/35 38/42/35 39/37/35
f 44/48/35 39/37/35 45/43/35
f 51/49/36 45/43/36 46/44/36
f 51/49/36 46/44/36 52/50/36
f 52/50/37 46/44/37 47/45/37
f 52/50/37 47/45/37 53/51/37
f 53/51/38 47/45/38 48/46/38
f 53/51/38 48/46/38 54/52/38
f 54/52/39 48/46/39 49/47/39
f 54/52/39 49/47/39 55/53/39
f 50/54/40 44/48/40 45/43/40
f 50/54/40 45/43/40 51/49/40
f 56/55/41 50/56/41 51/57/41
f 56/55/41 51/57/41 57/58/41
f 57/58/42 51/57/42 52/59/42
f 57/58/42 52/59/42 58/60/42
f 58/60/43 52/59/43 53/61/43
f 58/60/43 53/61/43 59/62/43
f 59/62/44 53/61/44 54/63/44
f 59/62/44 54/63/44 60/64/44
f 60/64/45 54/63/45 55/65/45
f 60/64/45 55/65/45 61/66/45
f 62/67/46 56/55/46 57/58/46
f 62/67/46 57/58/46 63/68/46
f 63/68/47 57/58/47 58/60/47
f 63/68/47 58/60/47 64/69/47
f 64/69/48 58/60/48 59/62/48
f 64/69/48 59/62/48 65/70/48
f 65/70/49 59/62/49 60/64/49
f 65/70/49 60/64/49 66/71/49
f 66/71/50 60/64/50 61/66/50
f 66/71/50 61/66/50 67/72/50
f 68/73/51 62/67/51 63/68/51
f 68/73/51 63/68/51 69/74/51
f 69/74/52 63/68/52 64/69/52
f 69/74/52 64/69/52 70/75/52
f 70/75/53 64/69/53 65/70/53
f 70/75/53 65/70/53 71/76/53
f 71/76/54 65/70/54 66/71/54
f 71/76/54 66/71/54 72/77/54
f 72/77/55 66/71/55 67/72/55
f 72/77/55 67/72/55 73/78/55
f 25/79/56 1/10/56 7/9/56
f 25/79/57 7/9/57 13/16/57
f 25/79/58 13/16/58 19/23/58
f 25/79/59 19/23/59 26/29/59
f 25/79/60 26/29/60 32/35/60
f 25/79/61 32/35/61 38/80/61
f 25/79/62 38/80/62 44/81/62
f 25/79/63 44/81/63 50/56/63
f 25/79/64 50/56/64 56/55/64
f 25/79/65 56/55/65 62/67/65
f 25/79/66 62/67/66 68/73/66
f 68/73/67 1/10/67 25/79/67
f 1/10/68 68/73/68 69/74/68
f 1/10/68 69/74/68 2/11/68
f 2/11/69 69/74/69 70/75/69
f 2/11/69 70/75/69 3/2/69
f 3/2/70 70/75/70 71/76/70
f 3/2/70 71/76/70 4/3/70
f 4/3/71 71/76/71 72/77/71
f 4/3/71 72/77/71 5/5/71
f 5/5/72 72/77/72 73/78/72
f 5/5/72 73/78/72 6/7/72
